<?xml version="1.0" encoding="utf-8"?>
<svg viewBox="17.382 192.16 462.442 312.869" xmlns="http://www.w3.org/2000/svg" xmlns:bx="https://boxy-svg.com">
  <path d="M 364.207 239.101 L 364.408 239.677 L 365.019 239.69 L 364.532 240.058 L 364.709 240.642 L 364.207 240.294 L 363.705 240.642 L 363.882 240.058 L 363.395 239.69 L 364.006 239.677 Z" style="fill: rgb(255, 255, 255); fill-opacity: 0.5;" transform="matrix(-0.767312, 0.641274, -0.652339, -0.758064, 481.124634, 312.342865)" bx:shape="star 364.207 239.953 0.854 0.852 0.4 5 1@6f1ffb3c"/>
  <path d="M 725.043 225.408 L 725.327 226.223 L 726.194 226.241 L 725.503 226.762 L 725.754 227.588 L 725.043 227.095 L 724.332 227.588 L 724.583 226.762 L 723.892 226.241 L 724.759 226.223 Z" style="fill: rgb(255, 255, 255); fill-opacity: 0.5;" transform="matrix(-0.813074, 0.582161, -0.593464, -0.804981, 807.301025, 122.93644)" bx:shape="star 725.043 226.613 1.21 1.205 0.4 5 1@0d68040c"/>
  <path d="M 811.902 648.468 L 812.044 648.881 L 812.478 648.889 L 812.133 649.153 L 812.258 649.572 L 811.902 649.322 L 811.546 649.572 L 811.671 649.153 L 811.326 648.889 L 811.76 648.881 Z" style="fill: rgb(255, 255, 255); fill-opacity: 0.5;" transform="matrix(-0.593406, 0.804903, -0.813152, -0.582217, 1102.076416, 131.048965)" bx:shape="star 811.902 649.078 0.606 0.61 0.4 5 1@a5b4a7d1"/>
  <path d="M 596.957 752.219 L 597.154 752.784 L 597.756 752.797 L 597.277 753.158 L 597.451 753.731 L 596.957 753.389 L 596.463 753.731 L 596.637 753.158 L 596.158 752.797 L 596.76 752.784 Z" style="fill: rgb(255, 255, 255); fill-opacity: 0.5;" transform="matrix(-0.813074, 0.582161, -0.593464, -0.804981, 1002.033386, 676.15564)" bx:shape="star 596.957 753.055 0.84 0.836 0.4 5 1@fcd3f919"/>
  <circle style="fill: rgb(255, 255, 255); fill-opacity: 0.5;" cx="425.628" cy="198.202" r="3.238" transform="matrix(0.183628, 0, 0, 0.180964, 12.743847, 345.032257)"/>
  <circle style="fill: rgb(255, 255, 255); fill-opacity: 0.5;" cx="96.962" cy="42.202" r="3.16" transform="matrix(0.183628, 0, 0, 0.180964, 12.743847, 345.032257)"/>
  <circle style="fill: rgb(255, 255, 255); fill-opacity: 0.5;" cx="240.79" cy="196.483" r="1.942" transform="matrix(0.183628, 0, 0, 0.180964, 12.743847, 345.032257)"/>
  <circle style="fill: rgb(255, 255, 255); fill-opacity: 0.5;" cx="90.473" cy="440.298" r="2.317" transform="matrix(0.183628, 0, 0, 0.180964, 12.743847, 345.032257)"/>
  <circle style="fill: rgb(255, 255, 255); fill-opacity: 0.5;" cx="461.203" cy="397.319" r="4.055" transform="matrix(0.183628, 0, 0, 0.180964, 12.743847, 345.032257)"/>
  <circle style="fill: rgb(255, 255, 255); fill-opacity: 0.5;" cx="318.85" cy="342.051" r="2.094" transform="matrix(0.183628, 0, 0, 0.180964, 12.743847, 345.032257)"/>
  <circle style="fill: rgb(255, 255, 255); fill-opacity: 0.5;" cx="168.657" cy="305.126" r="3.52" transform="matrix(0.183628, 0, 0, 0.180964, 12.743847, 345.032257)"/>
  <circle style="fill: rgb(255, 255, 255); fill-opacity: 0.5;" cx="304.008" cy="277.614" r="2.51" transform="matrix(0.183628, 0, 0, 0.180964, 12.743847, 345.032257)"/>
  <circle style="fill: rgb(255, 255, 255); fill-opacity: 0.5;" cx="143.147" cy="175.727" r="2.383" transform="matrix(0.183628, 0, 0, 0.180964, 12.743847, 345.032257)"/>
  <circle style="fill: rgb(255, 255, 255); fill-opacity: 0.5;" cx="460.607" cy="60.785" r="2.584" transform="matrix(0.183628, 0, 0, 0.180964, 12.743847, 345.032257)"/>
  <circle style="fill: rgb(255, 255, 255); fill-opacity: 0.5;" cx="306.015" cy="68.35" r="3.163" transform="matrix(0.183628, 0, 0, 0.180964, 12.743847, 345.032257)"/>
  <path d="M 364.207 239.219 L 364.38 239.715 L 364.907 239.726 L 364.487 240.044 L 364.64 240.547 L 364.207 240.247 L 363.774 240.547 L 363.927 240.044 L 363.507 239.726 L 364.034 239.715 Z" style="fill: rgb(255, 255, 255); fill-opacity: 0.5;" transform="matrix(-0.767312, 0.641274, -0.652339, -0.758064, 539.980713, 359.770569)" bx:shape="star 364.207 239.953 0.736 0.734 0.4 5 1@a2d8700b"/>
  <path d="M 725.043 225.575 L 725.288 226.277 L 726.035 226.292 L 725.44 226.741 L 725.656 227.453 L 725.043 227.028 L 724.43 227.453 L 724.646 226.741 L 724.051 226.292 L 724.798 226.277 Z" style="fill: rgb(255, 255, 255); fill-opacity: 0.5;" transform="matrix(-0.813074, 0.582161, -0.593464, -0.804981, 860.852234, 170.557251)" bx:shape="star 725.043 226.613 1.043 1.038 0.4 5 1@54096624"/>
  <path d="M 811.902 648.553 L 812.025 648.908 L 812.398 648.916 L 812.101 649.143 L 812.209 649.503 L 811.902 649.288 L 811.595 649.503 L 811.703 649.143 L 811.406 648.916 L 811.779 648.908 Z" style="fill: rgb(255, 255, 255); fill-opacity: 0.5;" transform="matrix(-0.593406, 0.804903, -0.813152, -0.582217, 1154.380615, 172.560944)" bx:shape="star 811.902 649.078 0.522 0.525 0.4 5 1@5de34433"/>
  <path d="M 596.957 752.335 L 597.127 752.822 L 597.646 752.833 L 597.232 753.144 L 597.383 753.637 L 596.957 753.343 L 596.531 753.637 L 596.682 753.144 L 596.268 752.833 L 596.787 752.822 Z" style="fill: rgb(255, 255, 255); fill-opacity: 0.5;" transform="matrix(-0.813074, 0.582161, -0.593464, -0.804981, 1057.455322, 716.161682)" bx:shape="star 596.957 753.055 0.724 0.72 0.4 5 1@500db7eb"/>
  <circle style="fill: rgb(255, 255, 255); fill-opacity: 0.5;" cx="425.628" cy="198.202" r="3.238" transform="matrix(0.158185, 0, 0, 0.15589, 76.084496, 395.083954)"/>
  <circle style="fill: rgb(255, 255, 255); fill-opacity: 0.5;" cx="96.962" cy="42.202" r="3.16" transform="matrix(0.158185, 0, 0, 0.15589, 76.084496, 395.083954)"/>
  <circle style="fill: rgb(255, 255, 255); fill-opacity: 0.5;" cx="240.79" cy="196.483" r="1.942" transform="matrix(0.158185, 0, 0, 0.15589, 76.084496, 395.083954)"/>
  <circle style="fill: rgb(255, 255, 255); fill-opacity: 0.5;" cx="90.473" cy="440.298" r="2.317" transform="matrix(0.158185, 0, 0, 0.15589, 76.084496, 395.083954)"/>
  <circle style="fill: rgb(255, 255, 255); fill-opacity: 0.5;" cx="461.203" cy="397.319" r="4.055" transform="matrix(0.158185, 0, 0, 0.15589, 76.084496, 395.083954)"/>
  <circle style="fill: rgb(255, 255, 255); fill-opacity: 0.5;" cx="318.85" cy="342.051" r="2.094" transform="matrix(0.158185, 0, 0, 0.15589, 76.084496, 395.083954)"/>
  <circle style="fill: rgb(255, 255, 255); fill-opacity: 0.5;" cx="168.657" cy="305.126" r="3.52" transform="matrix(0.158185, 0, 0, 0.15589, 76.084496, 395.083954)"/>
  <circle style="fill: rgb(255, 255, 255); fill-opacity: 0.5;" cx="304.008" cy="277.614" r="2.51" transform="matrix(0.158185, 0, 0, 0.15589, 76.084496, 395.083954)"/>
  <circle style="fill: rgb(255, 255, 255); fill-opacity: 0.5;" cx="143.147" cy="175.727" r="2.383" transform="matrix(0.158185, 0, 0, 0.15589, 76.084496, 395.083954)"/>
  <circle style="fill: rgb(255, 255, 255); fill-opacity: 0.5;" cx="460.607" cy="60.785" r="2.584" transform="matrix(0.158185, 0, 0, 0.15589, 76.084496, 395.083954)"/>
  <circle style="fill: rgb(255, 255, 255); fill-opacity: 0.5;" cx="306.015" cy="68.35" r="3.163" transform="matrix(0.158185, 0, 0, 0.15589, 76.084496, 395.083954)"/>
  <path d="M 364.207 239.219 L 364.38 239.715 L 364.907 239.726 L 364.487 240.044 L 364.64 240.547 L 364.207 240.247 L 363.774 240.547 L 363.927 240.044 L 363.507 239.726 L 364.034 239.715 Z" style="fill: rgb(255, 255, 255); fill-opacity: 0.5;" transform="matrix(0.767312, -0.641274, 0.652339, 0.758064, -372.917786, 528.460205)" bx:shape="star 364.207 239.953 0.736 0.734 0.4 5 1@a2d8700b"/>
  <path d="M 725.043 225.575 L 725.288 226.277 L 726.035 226.292 L 725.44 226.741 L 725.656 227.453 L 725.043 227.028 L 724.43 227.453 L 724.646 226.741 L 724.051 226.292 L 724.798 226.277 Z" style="fill: rgb(255, 255, 255); fill-opacity: 0.5;" transform="matrix(0.813074, -0.582161, 0.593464, 0.804981, -693.784851, 717.673889)" bx:shape="star 725.043 226.613 1.043 1.038 0.4 5 1@54096624"/>
  <path d="M 811.902 648.553 L 812.025 648.908 L 812.398 648.916 L 812.101 649.143 L 812.209 649.503 L 811.902 649.288 L 811.595 649.503 L 811.703 649.143 L 811.406 648.916 L 811.779 648.908 Z" style="fill: rgb(255, 255, 255); fill-opacity: 0.5;" transform="matrix(0.593406, -0.804903, 0.813152, 0.582217, -987.31958, 715.671875)" bx:shape="star 811.902 649.078 0.522 0.525 0.4 5 1@5de34433"/>
  <path d="M 596.957 752.335 L 597.127 752.822 L 597.646 752.833 L 597.232 753.144 L 597.383 753.637 L 596.957 753.343 L 596.531 753.637 L 596.682 753.144 L 596.268 752.833 L 596.787 752.822 Z" style="fill: rgb(255, 255, 255); fill-opacity: 0.5;" transform="matrix(0.813074, -0.582161, 0.593464, 0.804981, -890.386841, 172.07196)" bx:shape="star 596.957 753.055 0.724 0.72 0.4 5 1@500db7eb"/>
  <circle style="fill: rgb(255, 255, 255); fill-opacity: 0.5;" cx="425.628" cy="198.202" r="3.238" transform="matrix(-0.158185, 0, 0, -0.15589, 90.978973, 493.14801)"/>
  <circle style="fill: rgb(255, 255, 255); fill-opacity: 0.5;" cx="96.962" cy="42.202" r="3.16" transform="matrix(-0.158185, 0, 0, -0.15589, 90.978973, 493.14801)"/>
  <circle style="fill: rgb(255, 255, 255); fill-opacity: 0.5;" cx="240.79" cy="196.483" r="1.942" transform="matrix(-0.158185, 0, 0, -0.15589, 90.978973, 493.14801)"/>
  <circle style="fill: rgb(255, 255, 255); fill-opacity: 0.5;" cx="90.473" cy="440.298" r="2.317" transform="matrix(-0.158185, 0, 0, -0.15589, 90.978973, 493.14801)"/>
  <circle style="fill: rgb(255, 255, 255); fill-opacity: 0.5;" cx="461.203" cy="397.319" r="4.055" transform="matrix(-0.158185, 0, 0, -0.15589, 90.978973, 493.14801)"/>
  <circle style="fill: rgb(255, 255, 255); fill-opacity: 0.5;" cx="318.85" cy="342.051" r="2.094" transform="matrix(-0.158185, 0, 0, -0.15589, 90.978973, 493.14801)"/>
  <circle style="fill: rgb(255, 255, 255); fill-opacity: 0.5;" cx="168.657" cy="305.126" r="3.52" transform="matrix(-0.158185, 0, 0, -0.15589, 90.978973, 493.14801)"/>
  <circle style="fill: rgb(255, 255, 255); fill-opacity: 0.5;" cx="304.008" cy="277.614" r="2.51" transform="matrix(-0.158185, 0, 0, -0.15589, 90.978973, 493.14801)"/>
  <circle style="fill: rgb(255, 255, 255); fill-opacity: 0.5;" cx="143.147" cy="175.727" r="2.383" transform="matrix(-0.158185, 0, 0, -0.15589, 90.978973, 493.14801)"/>
  <circle style="fill: rgb(255, 255, 255); fill-opacity: 0.5;" cx="460.607" cy="60.785" r="2.584" transform="matrix(-0.158185, 0, 0, -0.15589, 90.978973, 493.14801)"/>
  <circle style="fill: rgb(255, 255, 255); fill-opacity: 0.5;" cx="306.015" cy="68.35" r="3.163" transform="matrix(-0.158185, 0, 0, -0.15589, 90.978973, 493.14801)"/>
  <path d="M 364.207 239.101 L 364.408 239.677 L 365.019 239.69 L 364.532 240.058 L 364.709 240.642 L 364.207 240.294 L 363.705 240.642 L 363.882 240.058 L 363.395 239.69 L 364.006 239.677 Z" style="fill: rgb(255, 255, 255); fill-opacity: 0.5;" transform="matrix(-0.767312, 0.641274, -0.652339, -0.758064, 588.564575, 330.310425)" bx:shape="star 364.207 239.953 0.854 0.852 0.4 5 1@6f1ffb3c"/>
  <path d="M 725.043 225.408 L 725.327 226.223 L 726.194 226.241 L 725.503 226.762 L 725.754 227.588 L 725.043 227.095 L 724.332 227.588 L 724.583 226.762 L 723.892 226.241 L 724.759 226.223 Z" style="fill: rgb(255, 255, 255); fill-opacity: 0.5;" transform="matrix(-0.813074, 0.582161, -0.593464, -0.804981, 914.739258, 140.904022)" bx:shape="star 725.043 226.613 1.21 1.205 0.4 5 1@0d68040c"/>
  <path d="M 811.902 648.468 L 812.044 648.881 L 812.478 648.889 L 812.133 649.153 L 812.258 649.572 L 811.902 649.322 L 811.546 649.572 L 811.671 649.153 L 811.326 648.889 L 811.76 648.881 Z" style="fill: rgb(255, 255, 255); fill-opacity: 0.5;" transform="matrix(-0.593406, 0.804903, -0.813152, -0.582217, 1209.517334, 149.015854)" bx:shape="star 811.902 649.078 0.606 0.61 0.4 5 1@a5b4a7d1"/>
  <path d="M 596.957 752.219 L 597.154 752.784 L 597.756 752.797 L 597.277 753.158 L 597.451 753.731 L 596.957 753.389 L 596.463 753.731 L 596.637 753.158 L 596.158 752.797 L 596.76 752.784 Z" style="fill: rgb(255, 255, 255); fill-opacity: 0.5;" transform="matrix(-0.813074, 0.582161, -0.593464, -0.804981, 1109.471069, 694.12207)" bx:shape="star 596.957 753.055 0.84 0.836 0.4 5 1@fcd3f919"/>
  <circle style="fill: rgb(255, 255, 255); fill-opacity: 0.5;" cx="425.628" cy="198.202" r="3.238" transform="matrix(0.183628, 0, 0, 0.180964, 120.183411, 362.99939)"/>
  <circle style="fill: rgb(255, 255, 255); fill-opacity: 0.5;" cx="96.962" cy="42.202" r="3.16" transform="matrix(0.183628, 0, 0, 0.180964, 120.183411, 362.99939)"/>
  <circle style="fill: rgb(255, 255, 255); fill-opacity: 0.5;" cx="240.79" cy="196.483" r="1.942" transform="matrix(0.183628, 0, 0, 0.180964, 120.183411, 362.99939)"/>
  <circle style="fill: rgb(255, 255, 255); fill-opacity: 0.5;" cx="90.473" cy="440.298" r="2.317" transform="matrix(0.183628, 0, 0, 0.180964, 120.183411, 362.99939)"/>
  <circle style="fill: rgb(255, 255, 255); fill-opacity: 0.5;" cx="461.203" cy="397.319" r="4.055" transform="matrix(0.183628, 0, 0, 0.180964, 120.183411, 362.99939)"/>
  <circle style="fill: rgb(255, 255, 255); fill-opacity: 0.5;" cx="318.85" cy="342.051" r="2.094" transform="matrix(0.183628, 0, 0, 0.180964, 120.183411, 362.99939)"/>
  <circle style="fill: rgb(255, 255, 255); fill-opacity: 0.5;" cx="168.657" cy="305.126" r="3.52" transform="matrix(0.183628, 0, 0, 0.180964, 120.183411, 362.99939)"/>
  <circle style="fill: rgb(255, 255, 255); fill-opacity: 0.5;" cx="304.008" cy="277.614" r="2.51" transform="matrix(0.183628, 0, 0, 0.180964, 120.183411, 362.99939)"/>
  <circle style="fill: rgb(255, 255, 255); fill-opacity: 0.5;" cx="143.147" cy="175.727" r="2.383" transform="matrix(0.183628, 0, 0, 0.180964, 120.183411, 362.99939)"/>
  <circle style="fill: rgb(255, 255, 255); fill-opacity: 0.5;" cx="460.607" cy="60.785" r="2.584" transform="matrix(0.183628, 0, 0, 0.180964, 120.183411, 362.99939)"/>
  <circle style="fill: rgb(255, 255, 255); fill-opacity: 0.5;" cx="306.015" cy="68.35" r="3.163" transform="matrix(0.183628, 0, 0, 0.180964, 120.183411, 362.99939)"/>
  <path d="M 364.207 239.219 L 364.38 239.715 L 364.907 239.726 L 364.487 240.044 L 364.64 240.547 L 364.207 240.247 L 363.774 240.547 L 363.927 240.044 L 363.507 239.726 L 364.034 239.715 Z" style="fill: rgb(255, 255, 255); fill-opacity: 0.5;" transform="matrix(-0.767312, 0.641274, -0.652339, -0.758064, 647.420288, 377.738098)" bx:shape="star 364.207 239.953 0.736 0.734 0.4 5 1@a2d8700b"/>
  <path d="M 725.043 225.575 L 725.288 226.277 L 726.035 226.292 L 725.44 226.741 L 725.656 227.453 L 725.043 227.028 L 724.43 227.453 L 724.646 226.741 L 724.051 226.292 L 724.798 226.277 Z" style="fill: rgb(255, 255, 255); fill-opacity: 0.5;" transform="matrix(-0.813074, 0.582161, -0.593464, -0.804981, 968.290527, 188.524826)" bx:shape="star 725.043 226.613 1.043 1.038 0.4 5 1@54096624"/>
  <path d="M 811.902 648.553 L 812.025 648.908 L 812.398 648.916 L 812.101 649.143 L 812.209 649.503 L 811.902 649.288 L 811.595 649.503 L 811.703 649.143 L 811.406 648.916 L 811.779 648.908 Z" style="fill: rgb(255, 255, 255); fill-opacity: 0.5;" transform="matrix(-0.593406, 0.804903, -0.813152, -0.582217, 1261.821411, 190.527832)" bx:shape="star 811.902 649.078 0.522 0.525 0.4 5 1@5de34433"/>
  <path d="M 596.957 752.335 L 597.127 752.822 L 597.646 752.833 L 597.232 753.144 L 597.383 753.637 L 596.957 753.343 L 596.531 753.637 L 596.682 753.144 L 596.268 752.833 L 596.787 752.822 Z" style="fill: rgb(255, 255, 255); fill-opacity: 0.5;" transform="matrix(-0.813074, 0.582161, -0.593464, -0.804981, 1164.892944, 734.128113)" bx:shape="star 596.957 753.055 0.724 0.72 0.4 5 1@500db7eb"/>
  <circle style="fill: rgb(255, 255, 255); fill-opacity: 0.5;" cx="425.628" cy="198.202" r="3.238" transform="matrix(0.158185, 0, 0, 0.15589, 183.524063, 413.051086)"/>
  <circle style="fill: rgb(255, 255, 255); fill-opacity: 0.5;" cx="96.962" cy="42.202" r="3.16" transform="matrix(0.158185, 0, 0, 0.15589, 183.524063, 413.051086)"/>
  <circle style="fill: rgb(255, 255, 255); fill-opacity: 0.5;" cx="240.79" cy="196.483" r="1.942" transform="matrix(0.158185, 0, 0, 0.15589, 183.524063, 413.051086)"/>
  <circle style="fill: rgb(255, 255, 255); fill-opacity: 0.5;" cx="90.473" cy="440.298" r="2.317" transform="matrix(0.158185, 0, 0, 0.15589, 183.524063, 413.051086)"/>
  <circle style="fill: rgb(255, 255, 255); fill-opacity: 0.5;" cx="461.203" cy="397.319" r="4.055" transform="matrix(0.158185, 0, 0, 0.15589, 183.524063, 413.051086)"/>
  <circle style="fill: rgb(255, 255, 255); fill-opacity: 0.5;" cx="318.85" cy="342.051" r="2.094" transform="matrix(0.158185, 0, 0, 0.15589, 183.524063, 413.051086)"/>
  <circle style="fill: rgb(255, 255, 255); fill-opacity: 0.5;" cx="168.657" cy="305.126" r="3.52" transform="matrix(0.158185, 0, 0, 0.15589, 183.524063, 413.051086)"/>
  <circle style="fill: rgb(255, 255, 255); fill-opacity: 0.5;" cx="304.008" cy="277.614" r="2.51" transform="matrix(0.158185, 0, 0, 0.15589, 183.524063, 413.051086)"/>
  <circle style="fill: rgb(255, 255, 255); fill-opacity: 0.5;" cx="143.147" cy="175.727" r="2.383" transform="matrix(0.158185, 0, 0, 0.15589, 183.524063, 413.051086)"/>
  <circle style="fill: rgb(255, 255, 255); fill-opacity: 0.5;" cx="460.607" cy="60.785" r="2.584" transform="matrix(0.158185, 0, 0, 0.15589, 183.524063, 413.051086)"/>
  <circle style="fill: rgb(255, 255, 255); fill-opacity: 0.5;" cx="306.015" cy="68.35" r="3.163" transform="matrix(0.158185, 0, 0, 0.15589, 183.524063, 413.051086)"/>
  <path d="M 364.207 239.219 L 364.38 239.715 L 364.907 239.726 L 364.487 240.044 L 364.64 240.547 L 364.207 240.247 L 363.774 240.547 L 363.927 240.044 L 363.507 239.726 L 364.034 239.715 Z" style="fill: rgb(255, 255, 255); fill-opacity: 0.5;" transform="matrix(0.767312, -0.641274, 0.652339, 0.758064, -265.478424, 546.427002)" bx:shape="star 364.207 239.953 0.736 0.734 0.4 5 1@a2d8700b"/>
  <path d="M 725.043 225.575 L 725.288 226.277 L 726.035 226.292 L 725.44 226.741 L 725.656 227.453 L 725.043 227.028 L 724.43 227.453 L 724.646 226.741 L 724.051 226.292 L 724.798 226.277 Z" style="fill: rgb(255, 255, 255); fill-opacity: 0.5;" transform="matrix(0.813074, -0.582161, 0.593464, 0.804981, -586.343872, 735.640747)" bx:shape="star 725.043 226.613 1.043 1.038 0.4 5 1@54096624"/>
  <path d="M 811.902 648.553 L 812.025 648.908 L 812.398 648.916 L 812.101 649.143 L 812.209 649.503 L 811.902 649.288 L 811.595 649.503 L 811.703 649.143 L 811.406 648.916 L 811.779 648.908 Z" style="fill: rgb(255, 255, 255); fill-opacity: 0.5;" transform="matrix(0.593406, -0.804903, 0.813152, 0.582217, -879.880981, 733.639343)" bx:shape="star 811.902 649.078 0.522 0.525 0.4 5 1@5de34433"/>
  <path d="M 596.957 752.335 L 597.127 752.822 L 597.646 752.833 L 597.232 753.144 L 597.383 753.637 L 596.957 753.343 L 596.531 753.637 L 596.682 753.144 L 596.268 752.833 L 596.787 752.822 Z" style="fill: rgb(255, 255, 255); fill-opacity: 0.5;" transform="matrix(0.813074, -0.582161, 0.593464, 0.804981, -782.945374, 190.039673)" bx:shape="star 596.957 753.055 0.724 0.72 0.4 5 1@500db7eb"/>
  <circle style="fill: rgb(255, 255, 255); fill-opacity: 0.5;" cx="425.628" cy="198.202" r="3.238" transform="matrix(-0.158185, 0, 0, -0.15589, 198.418533, 511.115173)"/>
  <circle style="fill: rgb(255, 255, 255); fill-opacity: 0.5;" cx="96.962" cy="42.202" r="3.16" transform="matrix(-0.158185, 0, 0, -0.15589, 198.418533, 511.115173)"/>
  <circle style="fill: rgb(255, 255, 255); fill-opacity: 0.5;" cx="240.79" cy="196.483" r="1.942" transform="matrix(-0.158185, 0, 0, -0.15589, 198.418533, 511.115173)"/>
  <circle style="fill: rgb(255, 255, 255); fill-opacity: 0.5;" cx="90.473" cy="440.298" r="2.317" transform="matrix(-0.158185, 0, 0, -0.15589, 198.418533, 511.115173)"/>
  <circle style="fill: rgb(255, 255, 255); fill-opacity: 0.5;" cx="461.203" cy="397.319" r="4.055" transform="matrix(-0.158185, 0, 0, -0.15589, 198.418533, 511.115173)"/>
  <circle style="fill: rgb(255, 255, 255); fill-opacity: 0.5;" cx="318.85" cy="342.051" r="2.094" transform="matrix(-0.158185, 0, 0, -0.15589, 198.418533, 511.115173)"/>
  <circle style="fill: rgb(255, 255, 255); fill-opacity: 0.5;" cx="168.657" cy="305.126" r="3.52" transform="matrix(-0.158185, 0, 0, -0.15589, 198.418533, 511.115173)"/>
  <circle style="fill: rgb(255, 255, 255); fill-opacity: 0.5;" cx="304.008" cy="277.614" r="2.51" transform="matrix(-0.158185, 0, 0, -0.15589, 198.418533, 511.115173)"/>
  <circle style="fill: rgb(255, 255, 255); fill-opacity: 0.5;" cx="143.147" cy="175.727" r="2.383" transform="matrix(-0.158185, 0, 0, -0.15589, 198.418533, 511.115173)"/>
  <circle style="fill: rgb(255, 255, 255); fill-opacity: 0.5;" cx="460.607" cy="60.785" r="2.584" transform="matrix(-0.158185, 0, 0, -0.15589, 198.418533, 511.115173)"/>
  <circle style="fill: rgb(255, 255, 255); fill-opacity: 0.5;" cx="306.015" cy="68.35" r="3.163" transform="matrix(-0.158185, 0, 0, -0.15589, 198.418533, 511.115173)"/>
  <path d="M 364.207 239.101 L 364.408 239.677 L 365.019 239.69 L 364.532 240.058 L 364.709 240.642 L 364.207 240.294 L 363.705 240.642 L 363.882 240.058 L 363.395 239.69 L 364.006 239.677 Z" style="fill: rgb(255, 255, 255); fill-opacity: 0.5;" transform="matrix(-0.767312, 0.641274, -0.652339, -0.758064, 703.828613, 186.179611)" bx:shape="star 364.207 239.953 0.854 0.852 0.4 5 1@6f1ffb3c"/>
  <path d="M 725.043 225.408 L 725.327 226.223 L 726.194 226.241 L 725.503 226.762 L 725.754 227.588 L 725.043 227.095 L 724.332 227.588 L 724.583 226.762 L 723.892 226.241 L 724.759 226.223 Z" style="fill: rgb(255, 255, 255); fill-opacity: 0.5;" transform="matrix(-0.813074, 0.582161, -0.593464, -0.804981, 1030.001099, -3.226652)" bx:shape="star 725.043 226.613 1.21 1.205 0.4 5 1@0d68040c"/>
  <path d="M 811.902 648.468 L 812.044 648.881 L 812.478 648.889 L 812.133 649.153 L 812.258 649.572 L 811.902 649.322 L 811.546 649.572 L 811.671 649.153 L 811.326 648.889 L 811.76 648.881 Z" style="fill: rgb(255, 255, 255); fill-opacity: 0.5;" transform="matrix(-0.593406, 0.804903, -0.813152, -0.582217, 1324.782715, 4.88412)" bx:shape="star 811.902 649.078 0.606 0.61 0.4 5 1@a5b4a7d1"/>
  <path d="M 596.957 752.219 L 597.154 752.784 L 597.756 752.797 L 597.277 753.158 L 597.451 753.731 L 596.957 753.389 L 596.463 753.731 L 596.637 753.158 L 596.158 752.797 L 596.76 752.784 Z" style="fill: rgb(255, 255, 255); fill-opacity: 0.5;" transform="matrix(-0.813074, 0.582161, -0.593464, -0.804981, 1224.731934, 549.989807)" bx:shape="star 596.957 753.055 0.84 0.836 0.4 5 1@fcd3f919"/>
  <circle style="fill: rgb(255, 255, 255); fill-opacity: 0.5;" cx="425.628" cy="198.202" r="3.238" transform="matrix(0.183628, 0, 0, 0.180964, 235.447037, 218.867981)"/>
  <circle style="fill: rgb(255, 255, 255); fill-opacity: 0.5;" cx="96.962" cy="42.202" r="3.16" transform="matrix(0.183628, 0, 0, 0.180964, 235.447037, 218.867981)"/>
  <circle style="fill: rgb(255, 255, 255); fill-opacity: 0.5;" cx="240.79" cy="196.483" r="1.942" transform="matrix(0.183628, 0, 0, 0.180964, 235.447037, 218.867981)"/>
  <circle style="fill: rgb(255, 255, 255); fill-opacity: 0.5;" cx="90.473" cy="440.298" r="2.317" transform="matrix(0.183628, 0, 0, 0.180964, 235.447037, 218.867981)"/>
  <circle style="fill: rgb(255, 255, 255); fill-opacity: 0.5;" cx="461.203" cy="397.319" r="4.055" transform="matrix(0.183628, 0, 0, 0.180964, 235.447037, 218.867981)"/>
  <circle style="fill: rgb(255, 255, 255); fill-opacity: 0.5;" cx="318.85" cy="342.051" r="2.094" transform="matrix(0.183628, 0, 0, 0.180964, 235.447037, 218.867981)"/>
  <circle style="fill: rgb(255, 255, 255); fill-opacity: 0.5;" cx="168.657" cy="305.126" r="3.52" transform="matrix(0.183628, 0, 0, 0.180964, 235.447037, 218.867981)"/>
  <circle style="fill: rgb(255, 255, 255); fill-opacity: 0.5;" cx="304.008" cy="277.614" r="2.51" transform="matrix(0.183628, 0, 0, 0.180964, 235.447037, 218.867981)"/>
  <circle style="fill: rgb(255, 255, 255); fill-opacity: 0.5;" cx="143.147" cy="175.727" r="2.383" transform="matrix(0.183628, 0, 0, 0.180964, 235.447037, 218.867981)"/>
  <circle style="fill: rgb(255, 255, 255); fill-opacity: 0.5;" cx="460.607" cy="60.785" r="2.584" transform="matrix(0.183628, 0, 0, 0.180964, 235.447037, 218.867981)"/>
  <circle style="fill: rgb(255, 255, 255); fill-opacity: 0.5;" cx="306.015" cy="68.35" r="3.163" transform="matrix(0.183628, 0, 0, 0.180964, 235.447037, 218.867981)"/>
  <path d="M 364.207 239.219 L 364.38 239.715 L 364.907 239.726 L 364.487 240.044 L 364.64 240.547 L 364.207 240.247 L 363.774 240.547 L 363.927 240.044 L 363.507 239.726 L 364.034 239.715 Z" style="fill: rgb(255, 255, 255); fill-opacity: 0.5;" transform="matrix(-0.767312, 0.641274, -0.652339, -0.758064, 762.684692, 233.607269)" bx:shape="star 364.207 239.953 0.736 0.734 0.4 5 1@a2d8700b"/>
  <path d="M 725.043 225.575 L 725.288 226.277 L 726.035 226.292 L 725.44 226.741 L 725.656 227.453 L 725.043 227.028 L 724.43 227.453 L 724.646 226.741 L 724.051 226.292 L 724.798 226.277 Z" style="fill: rgb(255, 255, 255); fill-opacity: 0.5;" transform="matrix(-0.813074, 0.582161, -0.593464, -0.804981, 1083.552368, 44.394035)" bx:shape="star 725.043 226.613 1.043 1.038 0.4 5 1@54096624"/>
  <path d="M 811.902 648.553 L 812.025 648.908 L 812.398 648.916 L 812.101 649.143 L 812.209 649.503 L 811.902 649.288 L 811.595 649.503 L 811.703 649.143 L 811.406 648.916 L 811.779 648.908 Z" style="fill: rgb(255, 255, 255); fill-opacity: 0.5;" transform="matrix(-0.593406, 0.804903, -0.813152, -0.582217, 1377.086914, 46.396091)" bx:shape="star 811.902 649.078 0.522 0.525 0.4 5 1@5de34433"/>
  <path d="M 596.957 752.335 L 597.127 752.822 L 597.646 752.833 L 597.232 753.144 L 597.383 753.637 L 596.957 753.343 L 596.531 753.637 L 596.682 753.144 L 596.268 752.833 L 596.787 752.822 Z" style="fill: rgb(255, 255, 255); fill-opacity: 0.5;" transform="matrix(-0.813074, 0.582161, -0.593464, -0.804981, 1280.153931, 589.995789)" bx:shape="star 596.957 753.055 0.724 0.72 0.4 5 1@500db7eb"/>
  <circle style="fill: rgb(255, 255, 255); fill-opacity: 0.5;" cx="425.628" cy="198.202" r="3.238" transform="matrix(0.158185, 0, 0, 0.15589, 298.787689, 268.919708)"/>
  <circle style="fill: rgb(255, 255, 255); fill-opacity: 0.5;" cx="96.962" cy="42.202" r="3.16" transform="matrix(0.158185, 0, 0, 0.15589, 298.787689, 268.919708)"/>
  <circle style="fill: rgb(255, 255, 255); fill-opacity: 0.5;" cx="240.79" cy="196.483" r="1.942" transform="matrix(0.158185, 0, 0, 0.15589, 298.787689, 268.919708)"/>
  <circle style="fill: rgb(255, 255, 255); fill-opacity: 0.5;" cx="90.473" cy="440.298" r="2.317" transform="matrix(0.158185, 0, 0, 0.15589, 298.787689, 268.919708)"/>
  <circle style="fill: rgb(255, 255, 255); fill-opacity: 0.5;" cx="461.203" cy="397.319" r="4.055" transform="matrix(0.158185, 0, 0, 0.15589, 298.787689, 268.919708)"/>
  <circle style="fill: rgb(255, 255, 255); fill-opacity: 0.5;" cx="318.85" cy="342.051" r="2.094" transform="matrix(0.158185, 0, 0, 0.15589, 298.787689, 268.919708)"/>
  <circle style="fill: rgb(255, 255, 255); fill-opacity: 0.5;" cx="168.657" cy="305.126" r="3.52" transform="matrix(0.158185, 0, 0, 0.15589, 298.787689, 268.919708)"/>
  <circle style="fill: rgb(255, 255, 255); fill-opacity: 0.5;" cx="304.008" cy="277.614" r="2.51" transform="matrix(0.158185, 0, 0, 0.15589, 298.787689, 268.919708)"/>
  <circle style="fill: rgb(255, 255, 255); fill-opacity: 0.5;" cx="143.147" cy="175.727" r="2.383" transform="matrix(0.158185, 0, 0, 0.15589, 298.787689, 268.919708)"/>
  <circle style="fill: rgb(255, 255, 255); fill-opacity: 0.5;" cx="460.607" cy="60.785" r="2.584" transform="matrix(0.158185, 0, 0, 0.15589, 298.787689, 268.919708)"/>
  <circle style="fill: rgb(255, 255, 255); fill-opacity: 0.5;" cx="306.015" cy="68.35" r="3.163" transform="matrix(0.158185, 0, 0, 0.15589, 298.787689, 268.919708)"/>
  <path d="M 364.207 239.219 L 364.38 239.715 L 364.907 239.726 L 364.487 240.044 L 364.64 240.547 L 364.207 240.247 L 363.774 240.547 L 363.927 240.044 L 363.507 239.726 L 364.034 239.715 Z" style="fill: rgb(255, 255, 255); fill-opacity: 0.5;" transform="matrix(0.767312, -0.641274, 0.652339, 0.758064, -150.215134, 402.294769)" bx:shape="star 364.207 239.953 0.736 0.734 0.4 5 1@a2d8700b"/>
  <path d="M 725.043 225.575 L 725.288 226.277 L 726.035 226.292 L 725.44 226.741 L 725.656 227.453 L 725.043 227.028 L 724.43 227.453 L 724.646 226.741 L 724.051 226.292 L 724.798 226.277 Z" style="fill: rgb(255, 255, 255); fill-opacity: 0.5;" transform="matrix(0.813074, -0.582161, 0.593464, 0.804981, -471.078094, 591.50885)" bx:shape="star 725.043 226.613 1.043 1.038 0.4 5 1@54096624"/>
  <path d="M 811.902 648.553 L 812.025 648.908 L 812.398 648.916 L 812.101 649.143 L 812.209 649.503 L 811.902 649.288 L 811.595 649.503 L 811.703 649.143 L 811.406 648.916 L 811.779 648.908 Z" style="fill: rgb(255, 255, 255); fill-opacity: 0.5;" transform="matrix(0.593406, -0.804903, 0.813152, 0.582217, -764.618774, 589.507996)" bx:shape="star 811.902 649.078 0.522 0.525 0.4 5 1@5de34433"/>
  <path d="M 596.957 752.335 L 597.127 752.822 L 597.646 752.833 L 597.232 753.144 L 597.383 753.637 L 596.957 753.343 L 596.531 753.637 L 596.682 753.144 L 596.268 752.833 L 596.787 752.822 Z" style="fill: rgb(255, 255, 255); fill-opacity: 0.5;" transform="matrix(0.813074, -0.582161, 0.593464, 0.804981, -667.679016, 45.909195)" bx:shape="star 596.957 753.055 0.724 0.72 0.4 5 1@500db7eb"/>
  <circle style="fill: rgb(255, 255, 255); fill-opacity: 0.5;" cx="425.628" cy="198.202" r="3.238" transform="matrix(-0.158185, 0, 0, -0.15589, 313.682159, 366.983765)"/>
  <circle style="fill: rgb(255, 255, 255); fill-opacity: 0.5;" cx="96.962" cy="42.202" r="3.16" transform="matrix(-0.158185, 0, 0, -0.15589, 313.682159, 366.983765)"/>
  <circle style="fill: rgb(255, 255, 255); fill-opacity: 0.5;" cx="240.79" cy="196.483" r="1.942" transform="matrix(-0.158185, 0, 0, -0.15589, 313.682159, 366.983765)"/>
  <circle style="fill: rgb(255, 255, 255); fill-opacity: 0.5;" cx="90.473" cy="440.298" r="2.317" transform="matrix(-0.158185, 0, 0, -0.15589, 313.682159, 366.983765)"/>
  <circle style="fill: rgb(255, 255, 255); fill-opacity: 0.5;" cx="461.203" cy="397.319" r="4.055" transform="matrix(-0.158185, 0, 0, -0.15589, 313.682159, 366.983765)"/>
  <circle style="fill: rgb(255, 255, 255); fill-opacity: 0.5;" cx="318.85" cy="342.051" r="2.094" transform="matrix(-0.158185, 0, 0, -0.15589, 313.682159, 366.983765)"/>
  <circle style="fill: rgb(255, 255, 255); fill-opacity: 0.5;" cx="168.657" cy="305.126" r="3.52" transform="matrix(-0.158185, 0, 0, -0.15589, 313.682159, 366.983765)"/>
  <circle style="fill: rgb(255, 255, 255); fill-opacity: 0.5;" cx="304.008" cy="277.614" r="2.51" transform="matrix(-0.158185, 0, 0, -0.15589, 313.682159, 366.983765)"/>
  <circle style="fill: rgb(255, 255, 255); fill-opacity: 0.5;" cx="143.147" cy="175.727" r="2.383" transform="matrix(-0.158185, 0, 0, -0.15589, 313.682159, 366.983765)"/>
  <circle style="fill: rgb(255, 255, 255); fill-opacity: 0.5;" cx="460.607" cy="60.785" r="2.584" transform="matrix(-0.158185, 0, 0, -0.15589, 313.682159, 366.983765)"/>
  <circle style="fill: rgb(255, 255, 255); fill-opacity: 0.5;" cx="306.015" cy="68.35" r="3.163" transform="matrix(-0.158185, 0, 0, -0.15589, 313.682159, 366.983765)"/>
  <path d="M 364.207 239.101 L 364.408 239.677 L 365.019 239.69 L 364.532 240.058 L 364.709 240.642 L 364.207 240.294 L 363.705 240.642 L 363.882 240.058 L 363.395 239.69 L 364.006 239.677 Z" style="fill: rgb(255, 255, 255); fill-opacity: 0.5;" transform="matrix(-0.767312, 0.641274, -0.652339, -0.758064, 811.268555, 204.147095)" bx:shape="star 364.207 239.953 0.854 0.852 0.4 5 1@6f1ffb3c"/>
  <path d="M 725.043 225.408 L 725.327 226.223 L 726.194 226.241 L 725.503 226.762 L 725.754 227.588 L 725.043 227.095 L 724.332 227.588 L 724.583 226.762 L 723.892 226.241 L 724.759 226.223 Z" style="fill: rgb(255, 255, 255); fill-opacity: 0.5;" transform="matrix(-0.813074, 0.582161, -0.593464, -0.804981, 1137.439331, 14.740816)" bx:shape="star 725.043 226.613 1.21 1.205 0.4 5 1@0d68040c"/>
  <path d="M 811.902 648.468 L 812.044 648.881 L 812.478 648.889 L 812.133 649.153 L 812.258 649.572 L 811.902 649.322 L 811.546 649.572 L 811.671 649.153 L 811.326 648.889 L 811.76 648.881 Z" style="fill: rgb(255, 255, 255); fill-opacity: 0.5;" transform="matrix(-0.593406, 0.804903, -0.813152, -0.582217, 1432.223633, 22.851009)" bx:shape="star 811.902 649.078 0.606 0.61 0.4 5 1@a5b4a7d1"/>
  <path d="M 596.957 752.219 L 597.154 752.784 L 597.756 752.797 L 597.277 753.158 L 597.451 753.731 L 596.957 753.389 L 596.463 753.731 L 596.637 753.158 L 596.158 752.797 L 596.76 752.784 Z" style="fill: rgb(255, 255, 255); fill-opacity: 0.5;" transform="matrix(-0.813074, 0.582161, -0.593464, -0.804981, 1332.169556, 567.956238)" bx:shape="star 596.957 753.055 0.84 0.836 0.4 5 1@fcd3f919"/>
  <circle style="fill: rgb(255, 255, 255); fill-opacity: 0.5;" cx="425.628" cy="198.202" r="3.238" transform="matrix(0.183628, 0, 0, 0.180964, 342.886597, 236.835114)"/>
  <circle style="fill: rgb(255, 255, 255); fill-opacity: 0.5;" cx="96.962" cy="42.202" r="3.16" transform="matrix(0.183628, 0, 0, 0.180964, 342.886597, 236.835114)"/>
  <circle style="fill: rgb(255, 255, 255); fill-opacity: 0.5;" cx="240.79" cy="196.483" r="1.942" transform="matrix(0.183628, 0, 0, 0.180964, 342.886597, 236.835114)"/>
  <circle style="fill: rgb(255, 255, 255); fill-opacity: 0.5;" cx="90.473" cy="440.298" r="2.317" transform="matrix(0.183628, 0, 0, 0.180964, 342.886597, 236.835114)"/>
  <circle style="fill: rgb(255, 255, 255); fill-opacity: 0.5;" cx="461.203" cy="397.319" r="4.055" transform="matrix(0.183628, 0, 0, 0.180964, 342.886597, 236.835114)"/>
  <circle style="fill: rgb(255, 255, 255); fill-opacity: 0.5;" cx="318.85" cy="342.051" r="2.094" transform="matrix(0.183628, 0, 0, 0.180964, 342.886597, 236.835114)"/>
  <circle style="fill: rgb(255, 255, 255); fill-opacity: 0.5;" cx="168.657" cy="305.126" r="3.52" transform="matrix(0.183628, 0, 0, 0.180964, 342.886597, 236.835114)"/>
  <circle style="fill: rgb(255, 255, 255); fill-opacity: 0.5;" cx="304.008" cy="277.614" r="2.51" transform="matrix(0.183628, 0, 0, 0.180964, 342.886597, 236.835114)"/>
  <circle style="fill: rgb(255, 255, 255); fill-opacity: 0.5;" cx="143.147" cy="175.727" r="2.383" transform="matrix(0.183628, 0, 0, 0.180964, 342.886597, 236.835114)"/>
  <circle style="fill: rgb(255, 255, 255); fill-opacity: 0.5;" cx="460.607" cy="60.785" r="2.584" transform="matrix(0.183628, 0, 0, 0.180964, 342.886597, 236.835114)"/>
  <circle style="fill: rgb(255, 255, 255); fill-opacity: 0.5;" cx="306.015" cy="68.35" r="3.163" transform="matrix(0.183628, 0, 0, 0.180964, 342.886597, 236.835114)"/>
  <path d="M 364.207 239.219 L 364.38 239.715 L 364.907 239.726 L 364.487 240.044 L 364.64 240.547 L 364.207 240.247 L 363.774 240.547 L 363.927 240.044 L 363.507 239.726 L 364.034 239.715 Z" style="fill: rgb(255, 255, 255); fill-opacity: 0.5;" transform="matrix(-0.767312, 0.641274, -0.652339, -0.758064, 870.124023, 251.574783)" bx:shape="star 364.207 239.953 0.736 0.734 0.4 5 1@a2d8700b"/>
  <path d="M 725.043 225.575 L 725.288 226.277 L 726.035 226.292 L 725.44 226.741 L 725.656 227.453 L 725.043 227.028 L 724.43 227.453 L 724.646 226.741 L 724.051 226.292 L 724.798 226.277 Z" style="fill: rgb(255, 255, 255); fill-opacity: 0.5;" transform="matrix(-0.813074, 0.582161, -0.593464, -0.804981, 1190.990601, 62.361614)" bx:shape="star 725.043 226.613 1.043 1.038 0.4 5 1@54096624"/>
  <path d="M 811.902 648.553 L 812.025 648.908 L 812.398 648.916 L 812.101 649.143 L 812.209 649.503 L 811.902 649.288 L 811.595 649.503 L 811.703 649.143 L 811.406 648.916 L 811.779 648.908 Z" style="fill: rgb(255, 255, 255); fill-opacity: 0.5;" transform="matrix(-0.593406, 0.804903, -0.813152, -0.582217, 1484.52771, 64.362991)" bx:shape="star 811.902 649.078 0.522 0.525 0.4 5 1@5de34433"/>
  <path d="M 596.957 752.335 L 597.127 752.822 L 597.646 752.833 L 597.232 753.144 L 597.383 753.637 L 596.957 753.343 L 596.531 753.637 L 596.682 753.144 L 596.268 752.833 L 596.787 752.822 Z" style="fill: rgb(255, 255, 255); fill-opacity: 0.5;" transform="matrix(-0.813074, 0.582161, -0.593464, -0.804981, 1387.591553, 607.962341)" bx:shape="star 596.957 753.055 0.724 0.72 0.4 5 1@500db7eb"/>
  <circle style="fill: rgb(255, 255, 255); fill-opacity: 0.5;" cx="425.628" cy="198.202" r="3.238" transform="matrix(0.158185, 0, 0, 0.15589, 406.227203, 286.88681)"/>
  <circle style="fill: rgb(255, 255, 255); fill-opacity: 0.5;" cx="96.962" cy="42.202" r="3.16" transform="matrix(0.158185, 0, 0, 0.15589, 406.227203, 286.88681)"/>
  <circle style="fill: rgb(255, 255, 255); fill-opacity: 0.5;" cx="240.79" cy="196.483" r="1.942" transform="matrix(0.158185, 0, 0, 0.15589, 406.227203, 286.88681)"/>
  <circle style="fill: rgb(255, 255, 255); fill-opacity: 0.5;" cx="90.473" cy="440.298" r="2.317" transform="matrix(0.158185, 0, 0, 0.15589, 406.227203, 286.88681)"/>
  <circle style="fill: rgb(255, 255, 255); fill-opacity: 0.5;" cx="461.203" cy="397.319" r="4.055" transform="matrix(0.158185, 0, 0, 0.15589, 406.227203, 286.88681)"/>
  <circle style="fill: rgb(255, 255, 255); fill-opacity: 0.5;" cx="318.85" cy="342.051" r="2.094" transform="matrix(0.158185, 0, 0, 0.15589, 406.227203, 286.88681)"/>
  <circle style="fill: rgb(255, 255, 255); fill-opacity: 0.5;" cx="168.657" cy="305.126" r="3.52" transform="matrix(0.158185, 0, 0, 0.15589, 406.227203, 286.88681)"/>
  <circle style="fill: rgb(255, 255, 255); fill-opacity: 0.5;" cx="304.008" cy="277.614" r="2.51" transform="matrix(0.158185, 0, 0, 0.15589, 406.227203, 286.88681)"/>
  <circle style="fill: rgb(255, 255, 255); fill-opacity: 0.5;" cx="143.147" cy="175.727" r="2.383" transform="matrix(0.158185, 0, 0, 0.15589, 406.227203, 286.88681)"/>
  <circle style="fill: rgb(255, 255, 255); fill-opacity: 0.5;" cx="460.607" cy="60.785" r="2.584" transform="matrix(0.158185, 0, 0, 0.15589, 406.227203, 286.88681)"/>
  <circle style="fill: rgb(255, 255, 255); fill-opacity: 0.5;" cx="306.015" cy="68.35" r="3.163" transform="matrix(0.158185, 0, 0, 0.15589, 406.227203, 286.88681)"/>
  <path d="M 364.207 239.219 L 364.38 239.715 L 364.907 239.726 L 364.487 240.044 L 364.64 240.547 L 364.207 240.247 L 363.774 240.547 L 363.927 240.044 L 363.507 239.726 L 364.034 239.715 Z" style="fill: rgb(255, 255, 255); fill-opacity: 0.5;" transform="matrix(0.767312, -0.641274, 0.652339, 0.758064, -42.775772, 420.261566)" bx:shape="star 364.207 239.953 0.736 0.734 0.4 5 1@a2d8700b"/>
  <path d="M 725.043 225.575 L 725.288 226.277 L 726.035 226.292 L 725.44 226.741 L 725.656 227.453 L 725.043 227.028 L 724.43 227.453 L 724.646 226.741 L 724.051 226.292 L 724.798 226.277 Z" style="fill: rgb(255, 255, 255); fill-opacity: 0.5;" transform="matrix(0.813074, -0.582161, 0.593464, 0.804981, -363.637177, 609.475708)" bx:shape="star 725.043 226.613 1.043 1.038 0.4 5 1@54096624"/>
  <path d="M 811.902 648.553 L 812.025 648.908 L 812.398 648.916 L 812.101 649.143 L 812.209 649.503 L 811.902 649.288 L 811.595 649.503 L 811.703 649.143 L 811.406 648.916 L 811.779 648.908 Z" style="fill: rgb(255, 255, 255); fill-opacity: 0.5;" transform="matrix(0.593406, -0.804903, 0.813152, 0.582217, -657.180115, 607.47583)" bx:shape="star 811.902 649.078 0.522 0.525 0.4 5 1@5de34433"/>
  <path d="M 596.957 752.335 L 597.127 752.822 L 597.646 752.833 L 597.232 753.144 L 597.383 753.637 L 596.957 753.343 L 596.531 753.637 L 596.682 753.144 L 596.268 752.833 L 596.787 752.822 Z" style="fill: rgb(255, 255, 255); fill-opacity: 0.5;" transform="matrix(0.813074, -0.582161, 0.593464, 0.804981, -560.237549, 63.876907)" bx:shape="star 596.957 753.055 0.724 0.72 0.4 5 1@500db7eb"/>
  <circle style="fill: rgb(255, 255, 255); fill-opacity: 0.5;" cx="425.628" cy="198.202" r="3.238" transform="matrix(-0.158185, 0, 0, -0.15589, 421.121674, 384.950897)"/>
  <circle style="fill: rgb(255, 255, 255); fill-opacity: 0.5;" cx="96.962" cy="42.202" r="3.16" transform="matrix(-0.158185, 0, 0, -0.15589, 421.121674, 384.950897)"/>
  <circle style="fill: rgb(255, 255, 255); fill-opacity: 0.5;" cx="240.79" cy="196.483" r="1.942" transform="matrix(-0.158185, 0, 0, -0.15589, 421.121674, 384.950897)"/>
  <circle style="fill: rgb(255, 255, 255); fill-opacity: 0.5;" cx="90.473" cy="440.298" r="2.317" transform="matrix(-0.158185, 0, 0, -0.15589, 421.121674, 384.950897)"/>
  <circle style="fill: rgb(255, 255, 255); fill-opacity: 0.5;" cx="461.203" cy="397.319" r="4.055" transform="matrix(-0.158185, 0, 0, -0.15589, 421.121674, 384.950897)"/>
  <circle style="fill: rgb(255, 255, 255); fill-opacity: 0.5;" cx="318.85" cy="342.051" r="2.094" transform="matrix(-0.158185, 0, 0, -0.15589, 421.121674, 384.950897)"/>
  <circle style="fill: rgb(255, 255, 255); fill-opacity: 0.5;" cx="168.657" cy="305.126" r="3.52" transform="matrix(-0.158185, 0, 0, -0.15589, 421.121674, 384.950897)"/>
  <circle style="fill: rgb(255, 255, 255); fill-opacity: 0.5;" cx="304.008" cy="277.614" r="2.51" transform="matrix(-0.158185, 0, 0, -0.15589, 421.121674, 384.950897)"/>
  <circle style="fill: rgb(255, 255, 255); fill-opacity: 0.5;" cx="143.147" cy="175.727" r="2.383" transform="matrix(-0.158185, 0, 0, -0.15589, 421.121674, 384.950897)"/>
  <circle style="fill: rgb(255, 255, 255); fill-opacity: 0.5;" cx="460.607" cy="60.785" r="2.584" transform="matrix(-0.158185, 0, 0, -0.15589, 421.121674, 384.950897)"/>
  <circle style="fill: rgb(255, 255, 255); fill-opacity: 0.5;" cx="306.015" cy="68.35" r="3.163" transform="matrix(-0.158185, 0, 0, -0.15589, 421.121674, 384.950897)"/>
  <path d="M 364.207 239.101 L 364.408 239.677 L 365.019 239.69 L 364.532 240.058 L 364.709 240.642 L 364.207 240.294 L 363.705 240.642 L 363.882 240.058 L 363.395 239.69 L 364.006 239.677 Z" style="fill: rgb(255, 255, 255); fill-opacity: 0.5;" transform="matrix(-0.767312, 0.641274, -0.652339, -0.758064, 516.161438, 152.407898)" bx:shape="star 364.207 239.953 0.854 0.852 0.4 5 1@6f1ffb3c"/>
  <path d="M 725.043 225.408 L 725.327 226.223 L 726.194 226.241 L 725.503 226.762 L 725.754 227.588 L 725.043 227.095 L 724.332 227.588 L 724.583 226.762 L 723.892 226.241 L 724.759 226.223 Z" style="fill: rgb(255, 255, 255); fill-opacity: 0.5;" transform="matrix(-0.813074, 0.582161, -0.593464, -0.804981, 842.32666, -36.99807)" bx:shape="star 725.043 226.613 1.21 1.205 0.4 5 1@0d68040c"/>
  <path d="M 811.902 648.468 L 812.044 648.881 L 812.478 648.889 L 812.133 649.153 L 812.258 649.572 L 811.902 649.322 L 811.546 649.572 L 811.671 649.153 L 811.326 648.889 L 811.76 648.881 Z" style="fill: rgb(255, 255, 255); fill-opacity: 0.5;" transform="matrix(-0.593406, 0.804903, -0.813152, -0.582217, 1137.119507, -28.890251)" bx:shape="star 811.902 649.078 0.606 0.61 0.4 5 1@a5b4a7d1"/>
  <path d="M 596.957 752.219 L 597.154 752.784 L 597.756 752.797 L 597.277 753.158 L 597.451 753.731 L 596.957 753.389 L 596.463 753.731 L 596.637 753.158 L 596.158 752.797 L 596.76 752.784 Z" style="fill: rgb(255, 255, 255); fill-opacity: 0.5;" transform="matrix(-0.813074, 0.582161, -0.593464, -0.804981, 1037.055664, 516.213806)" bx:shape="star 596.957 753.055 0.84 0.836 0.4 5 1@fcd3f919"/>
  <circle style="fill: rgb(255, 255, 255); fill-opacity: 0.5;" cx="425.628" cy="198.202" r="3.238" transform="matrix(0.183628, 0, 0, 0.180964, 47.778568, 185.094604)"/>
  <circle style="fill: rgb(255, 255, 255); fill-opacity: 0.5;" cx="96.962" cy="42.202" r="3.16" transform="matrix(0.183628, 0, 0, 0.180964, 47.778568, 185.094604)"/>
  <circle style="fill: rgb(255, 255, 255); fill-opacity: 0.5;" cx="240.79" cy="196.483" r="1.942" transform="matrix(0.183628, 0, 0, 0.180964, 47.778568, 185.094604)"/>
  <circle style="fill: rgb(255, 255, 255); fill-opacity: 0.5;" cx="90.473" cy="440.298" r="2.317" transform="matrix(0.183628, 0, 0, 0.180964, 47.778568, 185.094604)"/>
  <circle style="fill: rgb(255, 255, 255); fill-opacity: 0.5;" cx="461.203" cy="397.319" r="4.055" transform="matrix(0.183628, 0, 0, 0.180964, 47.778568, 185.094604)"/>
  <circle style="fill: rgb(255, 255, 255); fill-opacity: 0.5;" cx="318.85" cy="342.051" r="2.094" transform="matrix(0.183628, 0, 0, 0.180964, 47.778568, 185.094604)"/>
  <circle style="fill: rgb(255, 255, 255); fill-opacity: 0.5;" cx="168.657" cy="305.126" r="3.52" transform="matrix(0.183628, 0, 0, 0.180964, 47.778568, 185.094604)"/>
  <circle style="fill: rgb(255, 255, 255); fill-opacity: 0.5;" cx="304.008" cy="277.614" r="2.51" transform="matrix(0.183628, 0, 0, 0.180964, 47.778568, 185.094604)"/>
  <circle style="fill: rgb(255, 255, 255); fill-opacity: 0.5;" cx="143.147" cy="175.727" r="2.383" transform="matrix(0.183628, 0, 0, 0.180964, 47.778568, 185.094604)"/>
  <circle style="fill: rgb(255, 255, 255); fill-opacity: 0.5;" cx="460.607" cy="60.785" r="2.584" transform="matrix(0.183628, 0, 0, 0.180964, 47.778568, 185.094604)"/>
  <circle style="fill: rgb(255, 255, 255); fill-opacity: 0.5;" cx="306.015" cy="68.35" r="3.163" transform="matrix(0.183628, 0, 0, 0.180964, 47.778568, 185.094604)"/>
  <path d="M 364.207 239.219 L 364.38 239.715 L 364.907 239.726 L 364.487 240.044 L 364.64 240.547 L 364.207 240.247 L 363.774 240.547 L 363.927 240.044 L 363.507 239.726 L 364.034 239.715 Z" style="fill: rgb(255, 255, 255); fill-opacity: 0.5;" transform="matrix(-0.767312, 0.641274, -0.652339, -0.758064, 575.017456, 199.835587)" bx:shape="star 364.207 239.953 0.736 0.734 0.4 5 1@a2d8700b"/>
  <path d="M 725.043 225.575 L 725.288 226.277 L 726.035 226.292 L 725.44 226.741 L 725.656 227.453 L 725.043 227.028 L 724.43 227.453 L 724.646 226.741 L 724.051 226.292 L 724.798 226.277 Z" style="fill: rgb(255, 255, 255); fill-opacity: 0.5;" transform="matrix(-0.813074, 0.582161, -0.593464, -0.804981, 895.878296, 10.622591)" bx:shape="star 725.043 226.613 1.043 1.038 0.4 5 1@54096624"/>
  <path d="M 811.902 648.553 L 812.025 648.908 L 812.398 648.916 L 812.101 649.143 L 812.209 649.503 L 811.902 649.288 L 811.595 649.503 L 811.703 649.143 L 811.406 648.916 L 811.779 648.908 Z" style="fill: rgb(255, 255, 255); fill-opacity: 0.5;" transform="matrix(-0.593406, 0.804903, -0.813152, -0.582217, 1189.423706, 12.621715)" bx:shape="star 811.902 649.078 0.522 0.525 0.4 5 1@5de34433"/>
  <path d="M 596.957 752.335 L 597.127 752.822 L 597.646 752.833 L 597.232 753.144 L 597.383 753.637 L 596.957 753.343 L 596.531 753.637 L 596.682 753.144 L 596.268 752.833 L 596.787 752.822 Z" style="fill: rgb(255, 255, 255); fill-opacity: 0.5;" transform="matrix(-0.813074, 0.582161, -0.593464, -0.804981, 1092.477539, 556.219788)" bx:shape="star 596.957 753.055 0.724 0.72 0.4 5 1@500db7eb"/>
  <circle style="fill: rgb(255, 255, 255); fill-opacity: 0.5;" cx="425.628" cy="198.202" r="3.238" transform="matrix(0.158185, 0, 0, 0.15589, 111.119194, 235.146301)"/>
  <circle style="fill: rgb(255, 255, 255); fill-opacity: 0.5;" cx="96.962" cy="42.202" r="3.16" transform="matrix(0.158185, 0, 0, 0.15589, 111.119194, 235.146301)"/>
  <circle style="fill: rgb(255, 255, 255); fill-opacity: 0.5;" cx="240.79" cy="196.483" r="1.942" transform="matrix(0.158185, 0, 0, 0.15589, 111.119194, 235.146301)"/>
  <circle style="fill: rgb(255, 255, 255); fill-opacity: 0.5;" cx="90.473" cy="440.298" r="2.317" transform="matrix(0.158185, 0, 0, 0.15589, 111.119194, 235.146301)"/>
  <circle style="fill: rgb(255, 255, 255); fill-opacity: 0.5;" cx="461.203" cy="397.319" r="4.055" transform="matrix(0.158185, 0, 0, 0.15589, 111.119194, 235.146301)"/>
  <circle style="fill: rgb(255, 255, 255); fill-opacity: 0.5;" cx="318.85" cy="342.051" r="2.094" transform="matrix(0.158185, 0, 0, 0.15589, 111.119194, 235.146301)"/>
  <circle style="fill: rgb(255, 255, 255); fill-opacity: 0.5;" cx="168.657" cy="305.126" r="3.52" transform="matrix(0.158185, 0, 0, 0.15589, 111.119194, 235.146301)"/>
  <circle style="fill: rgb(255, 255, 255); fill-opacity: 0.5;" cx="304.008" cy="277.614" r="2.51" transform="matrix(0.158185, 0, 0, 0.15589, 111.119194, 235.146301)"/>
  <circle style="fill: rgb(255, 255, 255); fill-opacity: 0.5;" cx="143.147" cy="175.727" r="2.383" transform="matrix(0.158185, 0, 0, 0.15589, 111.119194, 235.146301)"/>
  <circle style="fill: rgb(255, 255, 255); fill-opacity: 0.5;" cx="460.607" cy="60.785" r="2.584" transform="matrix(0.158185, 0, 0, 0.15589, 111.119194, 235.146301)"/>
  <circle style="fill: rgb(255, 255, 255); fill-opacity: 0.5;" cx="306.015" cy="68.35" r="3.163" transform="matrix(0.158185, 0, 0, 0.15589, 111.119194, 235.146301)"/>
  <path d="M 364.207 239.219 L 364.38 239.715 L 364.907 239.726 L 364.487 240.044 L 364.64 240.547 L 364.207 240.247 L 363.774 240.547 L 363.927 240.044 L 363.507 239.726 L 364.034 239.715 Z" style="fill: rgb(255, 255, 255); fill-opacity: 0.5;" transform="matrix(0.767312, -0.641274, 0.652339, 0.758064, -337.884491, 368.519653)" bx:shape="star 364.207 239.953 0.736 0.734 0.4 5 1@a2d8700b"/>
  <path d="M 725.043 225.575 L 725.288 226.277 L 726.035 226.292 L 725.44 226.741 L 725.656 227.453 L 725.043 227.028 L 724.43 227.453 L 724.646 226.741 L 724.051 226.292 L 724.798 226.277 Z" style="fill: rgb(255, 255, 255); fill-opacity: 0.5;" transform="matrix(0.813074, -0.582161, 0.593464, 0.804981, -658.740356, 557.733521)" bx:shape="star 725.043 226.613 1.043 1.038 0.4 5 1@54096624"/>
  <path d="M 811.902 648.553 L 812.025 648.908 L 812.398 648.916 L 812.101 649.143 L 812.209 649.503 L 811.902 649.288 L 811.595 649.503 L 811.703 649.143 L 811.406 648.916 L 811.779 648.908 Z" style="fill: rgb(255, 255, 255); fill-opacity: 0.5;" transform="matrix(0.593406, -0.804903, 0.813152, 0.582217, -952.291138, 555.735291)" bx:shape="star 811.902 649.078 0.522 0.525 0.4 5 1@5de34433"/>
  <path d="M 596.957 752.335 L 597.127 752.822 L 597.646 752.833 L 597.232 753.144 L 597.383 753.637 L 596.957 753.343 L 596.531 753.637 L 596.682 753.144 L 596.268 752.833 L 596.787 752.822 Z" style="fill: rgb(255, 255, 255); fill-opacity: 0.5;" transform="matrix(0.813074, -0.582161, 0.593464, 0.804981, -855.3396, 12.13839)" bx:shape="star 596.957 753.055 0.724 0.72 0.4 5 1@500db7eb"/>
  <circle style="fill: rgb(255, 255, 255); fill-opacity: 0.5;" cx="425.628" cy="198.202" r="3.238" transform="matrix(-0.158185, 0, 0, -0.15589, 126.013664, 333.210358)"/>
  <circle style="fill: rgb(255, 255, 255); fill-opacity: 0.5;" cx="96.962" cy="42.202" r="3.16" transform="matrix(-0.158185, 0, 0, -0.15589, 126.013664, 333.210358)"/>
  <circle style="fill: rgb(255, 255, 255); fill-opacity: 0.5;" cx="240.79" cy="196.483" r="1.942" transform="matrix(-0.158185, 0, 0, -0.15589, 126.013664, 333.210358)"/>
  <circle style="fill: rgb(255, 255, 255); fill-opacity: 0.5;" cx="90.473" cy="440.298" r="2.317" transform="matrix(-0.158185, 0, 0, -0.15589, 126.013664, 333.210358)"/>
  <circle style="fill: rgb(255, 255, 255); fill-opacity: 0.5;" cx="461.203" cy="397.319" r="4.055" transform="matrix(-0.158185, 0, 0, -0.15589, 126.013664, 333.210358)"/>
  <circle style="fill: rgb(255, 255, 255); fill-opacity: 0.5;" cx="318.85" cy="342.051" r="2.094" transform="matrix(-0.158185, 0, 0, -0.15589, 126.013664, 333.210358)"/>
  <circle style="fill: rgb(255, 255, 255); fill-opacity: 0.5;" cx="168.657" cy="305.126" r="3.52" transform="matrix(-0.158185, 0, 0, -0.15589, 126.013664, 333.210358)"/>
  <circle style="fill: rgb(255, 255, 255); fill-opacity: 0.5;" cx="304.008" cy="277.614" r="2.51" transform="matrix(-0.158185, 0, 0, -0.15589, 126.013664, 333.210358)"/>
  <circle style="fill: rgb(255, 255, 255); fill-opacity: 0.5;" cx="143.147" cy="175.727" r="2.383" transform="matrix(-0.158185, 0, 0, -0.15589, 126.013664, 333.210358)"/>
  <circle style="fill: rgb(255, 255, 255); fill-opacity: 0.5;" cx="460.607" cy="60.785" r="2.584" transform="matrix(-0.158185, 0, 0, -0.15589, 126.013664, 333.210358)"/>
  <circle style="fill: rgb(255, 255, 255); fill-opacity: 0.5;" cx="306.015" cy="68.35" r="3.163" transform="matrix(-0.158185, 0, 0, -0.15589, 126.013664, 333.210358)"/>
  <path d="M 364.207 239.101 L 364.408 239.677 L 365.019 239.69 L 364.532 240.058 L 364.709 240.642 L 364.207 240.294 L 363.705 240.642 L 363.882 240.058 L 363.395 239.69 L 364.006 239.677 Z" style="fill: rgb(255, 255, 255); fill-opacity: 0.5;" transform="matrix(-0.767312, 0.641274, -0.652339, -0.758064, 623.601379, 170.375412)" bx:shape="star 364.207 239.953 0.854 0.852 0.4 5 1@6f1ffb3c"/>
  <path d="M 725.043 225.408 L 725.327 226.223 L 726.194 226.241 L 725.503 226.762 L 725.754 227.588 L 725.043 227.095 L 724.332 227.588 L 724.583 226.762 L 723.892 226.241 L 724.759 226.223 Z" style="fill: rgb(255, 255, 255); fill-opacity: 0.5;" transform="matrix(-0.813074, 0.582161, -0.593464, -0.804981, 949.765625, -19.030596)" bx:shape="star 725.043 226.613 1.21 1.205 0.4 5 1@0d68040c"/>
  <path d="M 811.902 648.468 L 812.044 648.881 L 812.478 648.889 L 812.133 649.153 L 812.258 649.572 L 811.902 649.322 L 811.546 649.572 L 811.671 649.153 L 811.326 648.889 L 811.76 648.881 Z" style="fill: rgb(255, 255, 255); fill-opacity: 0.5;" transform="matrix(-0.593406, 0.804903, -0.813152, -0.582217, 1244.560425, -10.92336)" bx:shape="star 811.902 649.078 0.606 0.61 0.4 5 1@a5b4a7d1"/>
  <path d="M 596.957 752.219 L 597.154 752.784 L 597.756 752.797 L 597.277 753.158 L 597.451 753.731 L 596.957 753.389 L 596.463 753.731 L 596.637 753.158 L 596.158 752.797 L 596.76 752.784 Z" style="fill: rgb(255, 255, 255); fill-opacity: 0.5;" transform="matrix(-0.813074, 0.582161, -0.593464, -0.804981, 1144.493286, 534.180237)" bx:shape="star 596.957 753.055 0.84 0.836 0.4 5 1@fcd3f919"/>
  <circle style="fill: rgb(255, 255, 255); fill-opacity: 0.5;" cx="425.628" cy="198.202" r="3.238" transform="matrix(0.183628, 0, 0, 0.180964, 155.218124, 203.061722)"/>
  <circle style="fill: rgb(255, 255, 255); fill-opacity: 0.5;" cx="96.962" cy="42.202" r="3.16" transform="matrix(0.183628, 0, 0, 0.180964, 155.218124, 203.061722)"/>
  <circle style="fill: rgb(255, 255, 255); fill-opacity: 0.5;" cx="240.79" cy="196.483" r="1.942" transform="matrix(0.183628, 0, 0, 0.180964, 155.218124, 203.061722)"/>
  <circle style="fill: rgb(255, 255, 255); fill-opacity: 0.5;" cx="90.473" cy="440.298" r="2.317" transform="matrix(0.183628, 0, 0, 0.180964, 155.218124, 203.061722)"/>
  <circle style="fill: rgb(255, 255, 255); fill-opacity: 0.5;" cx="461.203" cy="397.319" r="4.055" transform="matrix(0.183628, 0, 0, 0.180964, 155.218124, 203.061722)"/>
  <circle style="fill: rgb(255, 255, 255); fill-opacity: 0.5;" cx="318.85" cy="342.051" r="2.094" transform="matrix(0.183628, 0, 0, 0.180964, 155.218124, 203.061722)"/>
  <circle style="fill: rgb(255, 255, 255); fill-opacity: 0.5;" cx="168.657" cy="305.126" r="3.52" transform="matrix(0.183628, 0, 0, 0.180964, 155.218124, 203.061722)"/>
  <circle style="fill: rgb(255, 255, 255); fill-opacity: 0.5;" cx="304.008" cy="277.614" r="2.51" transform="matrix(0.183628, 0, 0, 0.180964, 155.218124, 203.061722)"/>
  <circle style="fill: rgb(255, 255, 255); fill-opacity: 0.5;" cx="143.147" cy="175.727" r="2.383" transform="matrix(0.183628, 0, 0, 0.180964, 155.218124, 203.061722)"/>
  <circle style="fill: rgb(255, 255, 255); fill-opacity: 0.5;" cx="460.607" cy="60.785" r="2.584" transform="matrix(0.183628, 0, 0, 0.180964, 155.218124, 203.061722)"/>
  <circle style="fill: rgb(255, 255, 255); fill-opacity: 0.5;" cx="306.015" cy="68.35" r="3.163" transform="matrix(0.183628, 0, 0, 0.180964, 155.218124, 203.061722)"/>
  <path d="M 364.207 239.219 L 364.38 239.715 L 364.907 239.726 L 364.487 240.044 L 364.64 240.547 L 364.207 240.247 L 363.774 240.547 L 363.927 240.044 L 363.507 239.726 L 364.034 239.715 Z" style="fill: rgb(255, 255, 255); fill-opacity: 0.5;" transform="matrix(-0.767312, 0.641274, -0.652339, -0.758064, 682.456604, 217.803024)" bx:shape="star 364.207 239.953 0.736 0.734 0.4 5 1@a2d8700b"/>
  <path d="M 725.043 225.575 L 725.288 226.277 L 726.035 226.292 L 725.44 226.741 L 725.656 227.453 L 725.043 227.028 L 724.43 227.453 L 724.646 226.741 L 724.051 226.292 L 724.798 226.277 Z" style="fill: rgb(255, 255, 255); fill-opacity: 0.5;" transform="matrix(-0.813074, 0.582161, -0.593464, -0.804981, 1003.316956, 28.590029)" bx:shape="star 725.043 226.613 1.043 1.038 0.4 5 1@54096624"/>
  <path d="M 811.902 648.553 L 812.025 648.908 L 812.398 648.916 L 812.101 649.143 L 812.209 649.503 L 811.902 649.288 L 811.595 649.503 L 811.703 649.143 L 811.406 648.916 L 811.779 648.908 Z" style="fill: rgb(255, 255, 255); fill-opacity: 0.5;" transform="matrix(-0.593406, 0.804903, -0.813152, -0.582217, 1296.864502, 30.588627)" bx:shape="star 811.902 649.078 0.522 0.525 0.4 5 1@5de34433"/>
  <path d="M 596.957 752.335 L 597.127 752.822 L 597.646 752.833 L 597.232 753.144 L 597.383 753.637 L 596.957 753.343 L 596.531 753.637 L 596.682 753.144 L 596.268 752.833 L 596.787 752.822 Z" style="fill: rgb(255, 255, 255); fill-opacity: 0.5;" transform="matrix(-0.813074, 0.582161, -0.593464, -0.804981, 1199.915161, 574.186279)" bx:shape="star 596.957 753.055 0.724 0.72 0.4 5 1@500db7eb"/>
  <circle style="fill: rgb(255, 255, 255); fill-opacity: 0.5;" cx="425.628" cy="198.202" r="3.238" transform="matrix(0.158185, 0, 0, 0.15589, 218.558731, 253.113434)"/>
  <circle style="fill: rgb(255, 255, 255); fill-opacity: 0.5;" cx="96.962" cy="42.202" r="3.16" transform="matrix(0.158185, 0, 0, 0.15589, 218.558731, 253.113434)"/>
  <circle style="fill: rgb(255, 255, 255); fill-opacity: 0.5;" cx="240.79" cy="196.483" r="1.942" transform="matrix(0.158185, 0, 0, 0.15589, 218.558731, 253.113434)"/>
  <circle style="fill: rgb(255, 255, 255); fill-opacity: 0.5;" cx="90.473" cy="440.298" r="2.317" transform="matrix(0.158185, 0, 0, 0.15589, 218.558731, 253.113434)"/>
  <circle style="fill: rgb(255, 255, 255); fill-opacity: 0.5;" cx="461.203" cy="397.319" r="4.055" transform="matrix(0.158185, 0, 0, 0.15589, 218.558731, 253.113434)"/>
  <circle style="fill: rgb(255, 255, 255); fill-opacity: 0.5;" cx="318.85" cy="342.051" r="2.094" transform="matrix(0.158185, 0, 0, 0.15589, 218.558731, 253.113434)"/>
  <circle style="fill: rgb(255, 255, 255); fill-opacity: 0.5;" cx="168.657" cy="305.126" r="3.52" transform="matrix(0.158185, 0, 0, 0.15589, 218.558731, 253.113434)"/>
  <circle style="fill: rgb(255, 255, 255); fill-opacity: 0.5;" cx="304.008" cy="277.614" r="2.51" transform="matrix(0.158185, 0, 0, 0.15589, 218.558731, 253.113434)"/>
  <circle style="fill: rgb(255, 255, 255); fill-opacity: 0.5;" cx="143.147" cy="175.727" r="2.383" transform="matrix(0.158185, 0, 0, 0.15589, 218.558731, 253.113434)"/>
  <circle style="fill: rgb(255, 255, 255); fill-opacity: 0.5;" cx="460.607" cy="60.785" r="2.584" transform="matrix(0.158185, 0, 0, 0.15589, 218.558731, 253.113434)"/>
  <circle style="fill: rgb(255, 255, 255); fill-opacity: 0.5;" cx="306.015" cy="68.35" r="3.163" transform="matrix(0.158185, 0, 0, 0.15589, 218.558731, 253.113434)"/>
  <path d="M 364.207 239.219 L 364.38 239.715 L 364.907 239.726 L 364.487 240.044 L 364.64 240.547 L 364.207 240.247 L 363.774 240.547 L 363.927 240.044 L 363.507 239.726 L 364.034 239.715 Z" style="fill: rgb(255, 255, 255); fill-opacity: 0.5;" transform="matrix(0.767312, -0.641274, 0.652339, 0.758064, -230.445145, 386.486206)" bx:shape="star 364.207 239.953 0.736 0.734 0.4 5 1@a2d8700b"/>
  <path d="M 725.043 225.575 L 725.288 226.277 L 726.035 226.292 L 725.44 226.741 L 725.656 227.453 L 725.043 227.028 L 724.43 227.453 L 724.646 226.741 L 724.051 226.292 L 724.798 226.277 Z" style="fill: rgb(255, 255, 255); fill-opacity: 0.5;" transform="matrix(0.813074, -0.582161, 0.593464, 0.804981, -551.299744, 575.700378)" bx:shape="star 725.043 226.613 1.043 1.038 0.4 5 1@54096624"/>
  <path d="M 811.902 648.553 L 812.025 648.908 L 812.398 648.916 L 812.101 649.143 L 812.209 649.503 L 811.902 649.288 L 811.595 649.503 L 811.703 649.143 L 811.406 648.916 L 811.779 648.908 Z" style="fill: rgb(255, 255, 255); fill-opacity: 0.5;" transform="matrix(0.593406, -0.804903, 0.813152, 0.582217, -844.852539, 573.703125)" bx:shape="star 811.902 649.078 0.522 0.525 0.4 5 1@5de34433"/>
  <path d="M 596.957 752.335 L 597.127 752.822 L 597.646 752.833 L 597.232 753.144 L 597.383 753.637 L 596.957 753.343 L 596.531 753.637 L 596.682 753.144 L 596.268 752.833 L 596.787 752.822 Z" style="fill: rgb(255, 255, 255); fill-opacity: 0.5;" transform="matrix(0.813074, -0.582161, 0.593464, 0.804981, -747.898132, 30.10598)" bx:shape="star 596.957 753.055 0.724 0.72 0.4 5 1@500db7eb"/>
  <circle style="fill: rgb(255, 255, 255); fill-opacity: 0.5;" cx="425.628" cy="198.202" r="3.238" transform="matrix(-0.158185, 0, 0, -0.15589, 233.453201, 351.17749)"/>
  <circle style="fill: rgb(255, 255, 255); fill-opacity: 0.5;" cx="96.962" cy="42.202" r="3.16" transform="matrix(-0.158185, 0, 0, -0.15589, 233.453201, 351.17749)"/>
  <circle style="fill: rgb(255, 255, 255); fill-opacity: 0.5;" cx="240.79" cy="196.483" r="1.942" transform="matrix(-0.158185, 0, 0, -0.15589, 233.453201, 351.17749)"/>
  <circle style="fill: rgb(255, 255, 255); fill-opacity: 0.5;" cx="90.473" cy="440.298" r="2.317" transform="matrix(-0.158185, 0, 0, -0.15589, 233.453201, 351.17749)"/>
  <circle style="fill: rgb(255, 255, 255); fill-opacity: 0.5;" cx="461.203" cy="397.319" r="4.055" transform="matrix(-0.158185, 0, 0, -0.15589, 233.453201, 351.17749)"/>
  <circle style="fill: rgb(255, 255, 255); fill-opacity: 0.5;" cx="318.85" cy="342.051" r="2.094" transform="matrix(-0.158185, 0, 0, -0.15589, 233.453201, 351.17749)"/>
  <circle style="fill: rgb(255, 255, 255); fill-opacity: 0.5;" cx="168.657" cy="305.126" r="3.52" transform="matrix(-0.158185, 0, 0, -0.15589, 233.453201, 351.17749)"/>
  <circle style="fill: rgb(255, 255, 255); fill-opacity: 0.5;" cx="304.008" cy="277.614" r="2.51" transform="matrix(-0.158185, 0, 0, -0.15589, 233.453201, 351.17749)"/>
  <circle style="fill: rgb(255, 255, 255); fill-opacity: 0.5;" cx="143.147" cy="175.727" r="2.383" transform="matrix(-0.158185, 0, 0, -0.15589, 233.453201, 351.17749)"/>
  <circle style="fill: rgb(255, 255, 255); fill-opacity: 0.5;" cx="460.607" cy="60.785" r="2.584" transform="matrix(-0.158185, 0, 0, -0.15589, 233.453201, 351.17749)"/>
  <circle style="fill: rgb(255, 255, 255); fill-opacity: 0.5;" cx="306.015" cy="68.35" r="3.163" transform="matrix(-0.158185, 0, 0, -0.15589, 233.453201, 351.17749)"/>
  <path d="M 364.207 239.101 L 364.408 239.677 L 365.019 239.69 L 364.532 240.058 L 364.709 240.642 L 364.207 240.294 L 363.705 240.642 L 363.882 240.058 L 363.395 239.69 L 364.006 239.677 Z" style="fill: rgb(255, 255, 255); fill-opacity: 0.5;" transform="matrix(-0.767312, 0.641274, -0.652339, -0.758064, 688.593018, 291.470612)" bx:shape="star 364.207 239.953 0.854 0.852 0.4 5 1@6f1ffb3c"/>
  <path d="M 725.043 225.408 L 725.327 226.223 L 726.194 226.241 L 725.503 226.762 L 725.754 227.588 L 725.043 227.095 L 724.332 227.588 L 724.583 226.762 L 723.892 226.241 L 724.759 226.223 Z" style="fill: rgb(255, 255, 255); fill-opacity: 0.5;" transform="matrix(-0.813074, 0.582161, -0.593464, -0.804981, 1014.750854, 102.064857)" bx:shape="star 725.043 226.613 1.21 1.205 0.4 5 1@0d68040c"/>
  <path d="M 811.902 648.468 L 812.044 648.881 L 812.478 648.889 L 812.133 649.153 L 812.258 649.572 L 811.902 649.322 L 811.546 649.572 L 811.671 649.153 L 811.326 648.889 L 811.76 648.881 Z" style="fill: rgb(255, 255, 255); fill-opacity: 0.5;" transform="matrix(-0.593406, 0.804903, -0.813152, -0.582217, 1309.55542, 110.169464)" bx:shape="star 811.902 649.078 0.606 0.61 0.4 5 1@a5b4a7d1"/>
  <path d="M 596.957 752.219 L 597.154 752.784 L 597.756 752.797 L 597.277 753.158 L 597.451 753.731 L 596.957 753.389 L 596.463 753.731 L 596.637 753.158 L 596.158 752.797 L 596.76 752.784 Z" style="fill: rgb(255, 255, 255); fill-opacity: 0.5;" transform="matrix(-0.813074, 0.582161, -0.593464, -0.804981, 1209.476929, 655.271606)" bx:shape="star 596.957 753.055 0.84 0.836 0.4 5 1@fcd3f919"/>
  <circle style="fill: rgb(255, 255, 255); fill-opacity: 0.5;" cx="425.628" cy="198.202" r="3.238" transform="matrix(0.183628, 0, 0, 0.180964, 220.208618, 324.155426)"/>
  <circle style="fill: rgb(255, 255, 255); fill-opacity: 0.5;" cx="96.962" cy="42.202" r="3.16" transform="matrix(0.183628, 0, 0, 0.180964, 220.208618, 324.155426)"/>
  <circle style="fill: rgb(255, 255, 255); fill-opacity: 0.5;" cx="240.79" cy="196.483" r="1.942" transform="matrix(0.183628, 0, 0, 0.180964, 220.208618, 324.155426)"/>
  <circle style="fill: rgb(255, 255, 255); fill-opacity: 0.5;" cx="90.473" cy="440.298" r="2.317" transform="matrix(0.183628, 0, 0, 0.180964, 220.208618, 324.155426)"/>
  <circle style="fill: rgb(255, 255, 255); fill-opacity: 0.5;" cx="461.203" cy="397.319" r="4.055" transform="matrix(0.183628, 0, 0, 0.180964, 220.208618, 324.155426)"/>
  <circle style="fill: rgb(255, 255, 255); fill-opacity: 0.5;" cx="318.85" cy="342.051" r="2.094" transform="matrix(0.183628, 0, 0, 0.180964, 220.208618, 324.155426)"/>
  <circle style="fill: rgb(255, 255, 255); fill-opacity: 0.5;" cx="168.657" cy="305.126" r="3.52" transform="matrix(0.183628, 0, 0, 0.180964, 220.208618, 324.155426)"/>
  <circle style="fill: rgb(255, 255, 255); fill-opacity: 0.5;" cx="304.008" cy="277.614" r="2.51" transform="matrix(0.183628, 0, 0, 0.180964, 220.208618, 324.155426)"/>
  <circle style="fill: rgb(255, 255, 255); fill-opacity: 0.5;" cx="143.147" cy="175.727" r="2.383" transform="matrix(0.183628, 0, 0, 0.180964, 220.208618, 324.155426)"/>
  <circle style="fill: rgb(255, 255, 255); fill-opacity: 0.5;" cx="460.607" cy="60.785" r="2.584" transform="matrix(0.183628, 0, 0, 0.180964, 220.208618, 324.155426)"/>
  <circle style="fill: rgb(255, 255, 255); fill-opacity: 0.5;" cx="306.015" cy="68.35" r="3.163" transform="matrix(0.183628, 0, 0, 0.180964, 220.208618, 324.155426)"/>
  <path d="M 364.207 239.219 L 364.38 239.715 L 364.907 239.726 L 364.487 240.044 L 364.64 240.547 L 364.207 240.247 L 363.774 240.547 L 363.927 240.044 L 363.507 239.726 L 364.034 239.715 Z" style="fill: rgb(255, 255, 255); fill-opacity: 0.5;" transform="matrix(-0.767312, 0.641274, -0.652339, -0.758064, 747.449036, 338.898346)" bx:shape="star 364.207 239.953 0.736 0.734 0.4 5 1@a2d8700b"/>
  <path d="M 725.043 225.575 L 725.288 226.277 L 726.035 226.292 L 725.44 226.741 L 725.656 227.453 L 725.043 227.028 L 724.43 227.453 L 724.646 226.741 L 724.051 226.292 L 724.798 226.277 Z" style="fill: rgb(255, 255, 255); fill-opacity: 0.5;" transform="matrix(-0.813074, 0.582161, -0.593464, -0.804981, 1068.30249, 149.685486)" bx:shape="star 725.043 226.613 1.043 1.038 0.4 5 1@54096624"/>
  <path d="M 811.902 648.553 L 812.025 648.908 L 812.398 648.916 L 812.101 649.143 L 812.209 649.503 L 811.902 649.288 L 811.595 649.503 L 811.703 649.143 L 811.406 648.916 L 811.779 648.908 Z" style="fill: rgb(255, 255, 255); fill-opacity: 0.5;" transform="matrix(-0.593406, 0.804903, -0.813152, -0.582217, 1361.859619, 151.681427)" bx:shape="star 811.902 649.078 0.522 0.525 0.4 5 1@5de34433"/>
  <path d="M 596.957 752.335 L 597.127 752.822 L 597.646 752.833 L 597.232 753.144 L 597.383 753.637 L 596.957 753.343 L 596.531 753.637 L 596.682 753.144 L 596.268 752.833 L 596.787 752.822 Z" style="fill: rgb(255, 255, 255); fill-opacity: 0.5;" transform="matrix(-0.813074, 0.582161, -0.593464, -0.804981, 1264.898804, 695.27771)" bx:shape="star 596.957 753.055 0.724 0.72 0.4 5 1@500db7eb"/>
  <circle style="fill: rgb(255, 255, 255); fill-opacity: 0.5;" cx="425.628" cy="198.202" r="3.238" transform="matrix(0.158185, 0, 0, 0.15589, 283.549255, 374.207123)"/>
  <circle style="fill: rgb(255, 255, 255); fill-opacity: 0.5;" cx="96.962" cy="42.202" r="3.16" transform="matrix(0.158185, 0, 0, 0.15589, 283.549255, 374.207123)"/>
  <circle style="fill: rgb(255, 255, 255); fill-opacity: 0.5;" cx="240.79" cy="196.483" r="1.942" transform="matrix(0.158185, 0, 0, 0.15589, 283.549255, 374.207123)"/>
  <circle style="fill: rgb(255, 255, 255); fill-opacity: 0.5;" cx="90.473" cy="440.298" r="2.317" transform="matrix(0.158185, 0, 0, 0.15589, 283.549255, 374.207123)"/>
  <circle style="fill: rgb(255, 255, 255); fill-opacity: 0.5;" cx="461.203" cy="397.319" r="4.055" transform="matrix(0.158185, 0, 0, 0.15589, 283.549255, 374.207123)"/>
  <circle style="fill: rgb(255, 255, 255); fill-opacity: 0.5;" cx="318.85" cy="342.051" r="2.094" transform="matrix(0.158185, 0, 0, 0.15589, 283.549255, 374.207123)"/>
  <circle style="fill: rgb(255, 255, 255); fill-opacity: 0.5;" cx="168.657" cy="305.126" r="3.52" transform="matrix(0.158185, 0, 0, 0.15589, 283.549255, 374.207123)"/>
  <circle style="fill: rgb(255, 255, 255); fill-opacity: 0.5;" cx="304.008" cy="277.614" r="2.51" transform="matrix(0.158185, 0, 0, 0.15589, 283.549255, 374.207123)"/>
  <circle style="fill: rgb(255, 255, 255); fill-opacity: 0.5;" cx="143.147" cy="175.727" r="2.383" transform="matrix(0.158185, 0, 0, 0.15589, 283.549255, 374.207123)"/>
  <circle style="fill: rgb(255, 255, 255); fill-opacity: 0.5;" cx="460.607" cy="60.785" r="2.584" transform="matrix(0.158185, 0, 0, 0.15589, 283.549255, 374.207123)"/>
  <circle style="fill: rgb(255, 255, 255); fill-opacity: 0.5;" cx="306.015" cy="68.35" r="3.163" transform="matrix(0.158185, 0, 0, 0.15589, 283.549255, 374.207123)"/>
  <path d="M 364.207 239.219 L 364.38 239.715 L 364.907 239.726 L 364.487 240.044 L 364.64 240.547 L 364.207 240.247 L 363.774 240.547 L 363.927 240.044 L 363.507 239.726 L 364.034 239.715 Z" style="fill: rgb(255, 255, 255); fill-opacity: 0.5;" transform="matrix(0.767312, -0.641274, 0.652339, 0.758064, -165.455444, 507.578308)" bx:shape="star 364.207 239.953 0.736 0.734 0.4 5 1@a2d8700b"/>
  <path d="M 725.043 225.575 L 725.288 226.277 L 726.035 226.292 L 725.44 226.741 L 725.656 227.453 L 725.043 227.028 L 724.43 227.453 L 724.646 226.741 L 724.051 226.292 L 724.798 226.277 Z" style="fill: rgb(255, 255, 255); fill-opacity: 0.5;" transform="matrix(0.813074, -0.582161, 0.593464, 0.804981, -486.30368, 696.792542)" bx:shape="star 725.043 226.613 1.043 1.038 0.4 5 1@54096624"/>
  <path d="M 811.902 648.553 L 812.025 648.908 L 812.398 648.916 L 812.101 649.143 L 812.209 649.503 L 811.902 649.288 L 811.595 649.503 L 811.703 649.143 L 811.406 648.916 L 811.779 648.908 Z" style="fill: rgb(255, 255, 255); fill-opacity: 0.5;" transform="matrix(0.593406, -0.804903, 0.813152, 0.582217, -779.86554, 694.79718)" bx:shape="star 811.902 649.078 0.522 0.525 0.4 5 1@5de34433"/>
  <path d="M 596.957 752.335 L 597.127 752.822 L 597.646 752.833 L 597.232 753.144 L 597.383 753.637 L 596.957 753.343 L 596.531 753.637 L 596.682 753.144 L 596.268 752.833 L 596.787 752.822 Z" style="fill: rgb(255, 255, 255); fill-opacity: 0.5;" transform="matrix(0.813074, -0.582161, 0.593464, 0.804981, -682.900696, 151.201996)" bx:shape="star 596.957 753.055 0.724 0.72 0.4 5 1@500db7eb"/>
  <circle style="fill: rgb(255, 255, 255); fill-opacity: 0.5;" cx="425.628" cy="198.202" r="3.238" transform="matrix(-0.158185, 0, 0, -0.15589, 298.443726, 472.271179)"/>
  <circle style="fill: rgb(255, 255, 255); fill-opacity: 0.5;" cx="96.962" cy="42.202" r="3.16" transform="matrix(-0.158185, 0, 0, -0.15589, 298.443726, 472.271179)"/>
  <circle style="fill: rgb(255, 255, 255); fill-opacity: 0.5;" cx="240.79" cy="196.483" r="1.942" transform="matrix(-0.158185, 0, 0, -0.15589, 298.443726, 472.271179)"/>
  <circle style="fill: rgb(255, 255, 255); fill-opacity: 0.5;" cx="90.473" cy="440.298" r="2.317" transform="matrix(-0.158185, 0, 0, -0.15589, 298.443726, 472.271179)"/>
  <circle style="fill: rgb(255, 255, 255); fill-opacity: 0.5;" cx="461.203" cy="397.319" r="4.055" transform="matrix(-0.158185, 0, 0, -0.15589, 298.443726, 472.271179)"/>
  <circle style="fill: rgb(255, 255, 255); fill-opacity: 0.5;" cx="318.85" cy="342.051" r="2.094" transform="matrix(-0.158185, 0, 0, -0.15589, 298.443726, 472.271179)"/>
  <circle style="fill: rgb(255, 255, 255); fill-opacity: 0.5;" cx="168.657" cy="305.126" r="3.52" transform="matrix(-0.158185, 0, 0, -0.15589, 298.443726, 472.271179)"/>
  <circle style="fill: rgb(255, 255, 255); fill-opacity: 0.5;" cx="304.008" cy="277.614" r="2.51" transform="matrix(-0.158185, 0, 0, -0.15589, 298.443726, 472.271179)"/>
  <circle style="fill: rgb(255, 255, 255); fill-opacity: 0.5;" cx="143.147" cy="175.727" r="2.383" transform="matrix(-0.158185, 0, 0, -0.15589, 298.443726, 472.271179)"/>
  <circle style="fill: rgb(255, 255, 255); fill-opacity: 0.5;" cx="460.607" cy="60.785" r="2.584" transform="matrix(-0.158185, 0, 0, -0.15589, 298.443726, 472.271179)"/>
  <circle style="fill: rgb(255, 255, 255); fill-opacity: 0.5;" cx="306.015" cy="68.35" r="3.163" transform="matrix(-0.158185, 0, 0, -0.15589, 298.443726, 472.271179)"/>
  <path d="M 364.207 239.101 L 364.408 239.677 L 365.019 239.69 L 364.532 240.058 L 364.709 240.642 L 364.207 240.294 L 363.705 240.642 L 363.882 240.058 L 363.395 239.69 L 364.006 239.677 Z" style="fill: rgb(255, 255, 255); fill-opacity: 0.5;" transform="matrix(-0.767312, 0.641274, -0.652339, -0.758064, 796.032898, 309.43811)" bx:shape="star 364.207 239.953 0.854 0.852 0.4 5 1@6f1ffb3c"/>
  <path d="M 725.043 225.408 L 725.327 226.223 L 726.194 226.241 L 725.503 226.762 L 725.754 227.588 L 725.043 227.095 L 724.332 227.588 L 724.583 226.762 L 723.892 226.241 L 724.759 226.223 Z" style="fill: rgb(255, 255, 255); fill-opacity: 0.5;" transform="matrix(-0.813074, 0.582161, -0.593464, -0.804981, 1122.189819, 120.032326)" bx:shape="star 725.043 226.613 1.21 1.205 0.4 5 1@0d68040c"/>
  <path d="M 811.902 648.468 L 812.044 648.881 L 812.478 648.889 L 812.133 649.153 L 812.258 649.572 L 811.902 649.322 L 811.546 649.572 L 811.671 649.153 L 811.326 648.889 L 811.76 648.881 Z" style="fill: rgb(255, 255, 255); fill-opacity: 0.5;" transform="matrix(-0.593406, 0.804903, -0.813152, -0.582217, 1416.996338, 128.136353)" bx:shape="star 811.902 649.078 0.606 0.61 0.4 5 1@a5b4a7d1"/>
  <path d="M 596.957 752.219 L 597.154 752.784 L 597.756 752.797 L 597.277 753.158 L 597.451 753.731 L 596.957 753.389 L 596.463 753.731 L 596.637 753.158 L 596.158 752.797 L 596.76 752.784 Z" style="fill: rgb(255, 255, 255); fill-opacity: 0.5;" transform="matrix(-0.813074, 0.582161, -0.593464, -0.804981, 1316.914551, 673.238159)" bx:shape="star 596.957 753.055 0.84 0.836 0.4 5 1@fcd3f919"/>
  <circle style="fill: rgb(255, 255, 255); fill-opacity: 0.5;" cx="425.628" cy="198.202" r="3.238" transform="matrix(0.183628, 0, 0, 0.180964, 327.648193, 342.122528)"/>
  <circle style="fill: rgb(255, 255, 255); fill-opacity: 0.5;" cx="96.962" cy="42.202" r="3.16" transform="matrix(0.183628, 0, 0, 0.180964, 327.648193, 342.122528)"/>
  <circle style="fill: rgb(255, 255, 255); fill-opacity: 0.5;" cx="240.79" cy="196.483" r="1.942" transform="matrix(0.183628, 0, 0, 0.180964, 327.648193, 342.122528)"/>
  <circle style="fill: rgb(255, 255, 255); fill-opacity: 0.5;" cx="90.473" cy="440.298" r="2.317" transform="matrix(0.183628, 0, 0, 0.180964, 327.648193, 342.122528)"/>
  <circle style="fill: rgb(255, 255, 255); fill-opacity: 0.5;" cx="461.203" cy="397.319" r="4.055" transform="matrix(0.183628, 0, 0, 0.180964, 327.648193, 342.122528)"/>
  <circle style="fill: rgb(255, 255, 255); fill-opacity: 0.5;" cx="318.85" cy="342.051" r="2.094" transform="matrix(0.183628, 0, 0, 0.180964, 327.648193, 342.122528)"/>
  <circle style="fill: rgb(255, 255, 255); fill-opacity: 0.5;" cx="168.657" cy="305.126" r="3.52" transform="matrix(0.183628, 0, 0, 0.180964, 327.648193, 342.122528)"/>
  <circle style="fill: rgb(255, 255, 255); fill-opacity: 0.5;" cx="304.008" cy="277.614" r="2.51" transform="matrix(0.183628, 0, 0, 0.180964, 327.648193, 342.122528)"/>
  <circle style="fill: rgb(255, 255, 255); fill-opacity: 0.5;" cx="143.147" cy="175.727" r="2.383" transform="matrix(0.183628, 0, 0, 0.180964, 327.648193, 342.122528)"/>
  <circle style="fill: rgb(255, 255, 255); fill-opacity: 0.5;" cx="460.607" cy="60.785" r="2.584" transform="matrix(0.183628, 0, 0, 0.180964, 327.648193, 342.122528)"/>
  <circle style="fill: rgb(255, 255, 255); fill-opacity: 0.5;" cx="306.015" cy="68.35" r="3.163" transform="matrix(0.183628, 0, 0, 0.180964, 327.648193, 342.122528)"/>
  <path d="M 364.207 239.219 L 364.38 239.715 L 364.907 239.726 L 364.487 240.044 L 364.64 240.547 L 364.207 240.247 L 363.774 240.547 L 363.927 240.044 L 363.507 239.726 L 364.034 239.715 Z" style="fill: rgb(255, 255, 255); fill-opacity: 0.5;" transform="matrix(-0.767312, 0.641274, -0.652339, -0.758064, 854.886719, 356.865814)" bx:shape="star 364.207 239.953 0.736 0.734 0.4 5 1@a2d8700b"/>
  <path d="M 725.043 225.575 L 725.288 226.277 L 726.035 226.292 L 725.44 226.741 L 725.656 227.453 L 725.043 227.028 L 724.43 227.453 L 724.646 226.741 L 724.051 226.292 L 724.798 226.277 Z" style="fill: rgb(255, 255, 255); fill-opacity: 0.5;" transform="matrix(-0.813074, 0.582161, -0.593464, -0.804981, 1175.741089, 167.652878)" bx:shape="star 725.043 226.613 1.043 1.038 0.4 5 1@54096624"/>
  <path d="M 811.902 648.553 L 812.025 648.908 L 812.398 648.916 L 812.101 649.143 L 812.209 649.503 L 811.902 649.288 L 811.595 649.503 L 811.703 649.143 L 811.406 648.916 L 811.779 648.908 Z" style="fill: rgb(255, 255, 255); fill-opacity: 0.5;" transform="matrix(-0.593406, 0.804903, -0.813152, -0.582217, 1469.300415, 169.648315)" bx:shape="star 811.902 649.078 0.522 0.525 0.4 5 1@5de34433"/>
  <path d="M 596.957 752.335 L 597.127 752.822 L 597.646 752.833 L 597.232 753.144 L 597.383 753.637 L 596.957 753.343 L 596.531 753.637 L 596.682 753.144 L 596.268 752.833 L 596.787 752.822 Z" style="fill: rgb(255, 255, 255); fill-opacity: 0.5;" transform="matrix(-0.813074, 0.582161, -0.593464, -0.804981, 1372.336426, 713.244202)" bx:shape="star 596.957 753.055 0.724 0.72 0.4 5 1@500db7eb"/>
  <circle style="fill: rgb(255, 255, 255); fill-opacity: 0.5;" cx="425.628" cy="198.202" r="3.238" transform="matrix(0.158185, 0, 0, 0.15589, 390.9888, 392.174255)"/>
  <circle style="fill: rgb(255, 255, 255); fill-opacity: 0.5;" cx="96.962" cy="42.202" r="3.16" transform="matrix(0.158185, 0, 0, 0.15589, 390.9888, 392.174255)"/>
  <circle style="fill: rgb(255, 255, 255); fill-opacity: 0.5;" cx="240.79" cy="196.483" r="1.942" transform="matrix(0.158185, 0, 0, 0.15589, 390.9888, 392.174255)"/>
  <circle style="fill: rgb(255, 255, 255); fill-opacity: 0.5;" cx="90.473" cy="440.298" r="2.317" transform="matrix(0.158185, 0, 0, 0.15589, 390.9888, 392.174255)"/>
  <circle style="fill: rgb(255, 255, 255); fill-opacity: 0.5;" cx="461.203" cy="397.319" r="4.055" transform="matrix(0.158185, 0, 0, 0.15589, 390.9888, 392.174255)"/>
  <circle style="fill: rgb(255, 255, 255); fill-opacity: 0.5;" cx="318.85" cy="342.051" r="2.094" transform="matrix(0.158185, 0, 0, 0.15589, 390.9888, 392.174255)"/>
  <circle style="fill: rgb(255, 255, 255); fill-opacity: 0.5;" cx="168.657" cy="305.126" r="3.52" transform="matrix(0.158185, 0, 0, 0.15589, 390.9888, 392.174255)"/>
  <circle style="fill: rgb(255, 255, 255); fill-opacity: 0.5;" cx="304.008" cy="277.614" r="2.51" transform="matrix(0.158185, 0, 0, 0.15589, 390.9888, 392.174255)"/>
  <circle style="fill: rgb(255, 255, 255); fill-opacity: 0.5;" cx="143.147" cy="175.727" r="2.383" transform="matrix(0.158185, 0, 0, 0.15589, 390.9888, 392.174255)"/>
  <circle style="fill: rgb(255, 255, 255); fill-opacity: 0.5;" cx="460.607" cy="60.785" r="2.584" transform="matrix(0.158185, 0, 0, 0.15589, 390.9888, 392.174255)"/>
  <circle style="fill: rgb(255, 255, 255); fill-opacity: 0.5;" cx="306.015" cy="68.35" r="3.163" transform="matrix(0.158185, 0, 0, 0.15589, 390.9888, 392.174255)"/>
  <path d="M 364.207 239.219 L 364.38 239.715 L 364.907 239.726 L 364.487 240.044 L 364.64 240.547 L 364.207 240.247 L 363.774 240.547 L 363.927 240.044 L 363.507 239.726 L 364.034 239.715 Z" style="fill: rgb(255, 255, 255); fill-opacity: 0.5;" transform="matrix(0.767312, -0.641274, 0.652339, 0.758064, -58.01619, 525.544861)" bx:shape="star 364.207 239.953 0.736 0.734 0.4 5 1@a2d8700b"/>
  <path d="M 725.043 225.575 L 725.288 226.277 L 726.035 226.292 L 725.44 226.741 L 725.656 227.453 L 725.043 227.028 L 724.43 227.453 L 724.646 226.741 L 724.051 226.292 L 724.798 226.277 Z" style="fill: rgb(255, 255, 255); fill-opacity: 0.5;" transform="matrix(0.813074, -0.582161, 0.593464, 0.804981, -378.863068, 714.759399)" bx:shape="star 725.043 226.613 1.043 1.038 0.4 5 1@54096624"/>
  <path d="M 811.902 648.553 L 812.025 648.908 L 812.398 648.916 L 812.101 649.143 L 812.209 649.503 L 811.902 649.288 L 811.595 649.503 L 811.703 649.143 L 811.406 648.916 L 811.779 648.908 Z" style="fill: rgb(255, 255, 255); fill-opacity: 0.5;" transform="matrix(0.593406, -0.804903, 0.813152, 0.582217, -672.42688, 712.765076)" bx:shape="star 811.902 649.078 0.522 0.525 0.4 5 1@5de34433"/>
  <path d="M 596.957 752.335 L 597.127 752.822 L 597.646 752.833 L 597.232 753.144 L 597.383 753.637 L 596.957 753.343 L 596.531 753.637 L 596.682 753.144 L 596.268 752.833 L 596.787 752.822 Z" style="fill: rgb(255, 255, 255); fill-opacity: 0.5;" transform="matrix(0.813074, -0.582161, 0.593464, 0.804981, -575.45929, 169.169601)" bx:shape="star 596.957 753.055 0.724 0.72 0.4 5 1@500db7eb"/>
  <circle style="fill: rgb(255, 255, 255); fill-opacity: 0.5;" cx="425.628" cy="198.202" r="3.238" transform="matrix(-0.158185, 0, 0, -0.15589, 405.88327, 490.238312)"/>
  <circle style="fill: rgb(255, 255, 255); fill-opacity: 0.5;" cx="96.962" cy="42.202" r="3.16" transform="matrix(-0.158185, 0, 0, -0.15589, 405.88327, 490.238312)"/>
  <circle style="fill: rgb(255, 255, 255); fill-opacity: 0.5;" cx="240.79" cy="196.483" r="1.942" transform="matrix(-0.158185, 0, 0, -0.15589, 405.88327, 490.238312)"/>
  <circle style="fill: rgb(255, 255, 255); fill-opacity: 0.5;" cx="90.473" cy="440.298" r="2.317" transform="matrix(-0.158185, 0, 0, -0.15589, 405.88327, 490.238312)"/>
  <circle style="fill: rgb(255, 255, 255); fill-opacity: 0.5;" cx="461.203" cy="397.319" r="4.055" transform="matrix(-0.158185, 0, 0, -0.15589, 405.88327, 490.238312)"/>
  <circle style="fill: rgb(255, 255, 255); fill-opacity: 0.5;" cx="318.85" cy="342.051" r="2.094" transform="matrix(-0.158185, 0, 0, -0.15589, 405.88327, 490.238312)"/>
  <circle style="fill: rgb(255, 255, 255); fill-opacity: 0.5;" cx="168.657" cy="305.126" r="3.52" transform="matrix(-0.158185, 0, 0, -0.15589, 405.88327, 490.238312)"/>
  <circle style="fill: rgb(255, 255, 255); fill-opacity: 0.5;" cx="304.008" cy="277.614" r="2.51" transform="matrix(-0.158185, 0, 0, -0.15589, 405.88327, 490.238312)"/>
  <circle style="fill: rgb(255, 255, 255); fill-opacity: 0.5;" cx="143.147" cy="175.727" r="2.383" transform="matrix(-0.158185, 0, 0, -0.15589, 405.88327, 490.238312)"/>
  <circle style="fill: rgb(255, 255, 255); fill-opacity: 0.5;" cx="460.607" cy="60.785" r="2.584" transform="matrix(-0.158185, 0, 0, -0.15589, 405.88327, 490.238312)"/>
  <circle style="fill: rgb(255, 255, 255); fill-opacity: 0.5;" cx="306.015" cy="68.35" r="3.163" transform="matrix(-0.158185, 0, 0, -0.15589, 405.88327, 490.238312)"/>
</svg>